Surety-Black.ufo
<glyph name="dollar" format="2">
  <advance width="547"/>
  <unicode hex="0024"/>
  <outline>
    <contour>
      <point x="125" y="-119" type="line"/>
      <point x="125" y="6" type="line"/>
      <point x="87.919" y="16.3"/>
      <point x="56.886" y="28.067"/>
      <point x="33" y="42" type="curve"/>
      <point x="93" y="179" type="line"/>
      <point x="125.486" y="160.952"/>
      <point x="195.698" y="136"/>
      <point x="251" y="136" type="curve" smooth="yes"/>
      <point x="309.698" y="136"/>
      <point x="339" y="151.801"/>
      <point x="339" y="177" type="curve" smooth="yes"/>
      <point x="339" y="208.247"/>
      <point x="287.615" y="237.068"/>
      <point x="234" y="268" type="curve" smooth="yes"/>
      <point x="141.184" y="324.252"/>
      <point x="30" y="382.295"/>
      <point x="30" y="498" type="curve" smooth="yes"/>
      <point x="31.333" y="574"/>
      <point x="75" y="636"/>
      <point x="151" y="668" type="curve"/>
      <point x="151" y="789" type="line"/>
      <point x="269" y="799" type="line"/>
      <point x="269" y="693" type="line"/>
      <point x="271.667" y="693"/>
      <point x="282" y="693"/>
      <point x="284" y="693" type="curve" smooth="yes"/>
      <point x="292" y="693"/>
      <point x="300" y="693"/>
      <point x="313" y="692" type="curve"/>
      <point x="313" y="789" type="line"/>
      <point x="432" y="799" type="line"/>
      <point x="432" y="664" type="line"/>
      <point x="450.667" y="656"/>
      <point x="468.333" y="647.667"/>
      <point x="483" y="637" type="curve"/>
      <point x="429" y="514" type="line"/>
      <point x="369.063" y="535.644"/>
      <point x="331.713" y="544"/>
      <point x="285" y="544" type="curve" smooth="yes"/>
      <point x="243.667" y="544"/>
      <point x="218" y="528.333"/>
      <point x="218" y="503" type="curve" smooth="yes"/>
      <point x="218" y="468.311"/>
      <point x="270.552" y="448.895"/>
      <point x="321" y="419" type="curve" smooth="yes"/>
      <point x="423.335" y="359.305"/>
      <point x="527" y="296.775"/>
      <point x="527" y="187" type="curve" smooth="yes"/>
      <point x="527" y="113.667"/>
      <point x="484.667" y="51.667"/>
      <point x="410" y="17" type="curve"/>
      <point x="410" y="-122" type="line"/>
      <point x="291" y="-122" type="line"/>
      <point x="291" y="-12" type="line"/>
      <point x="285.667" y="-12"/>
      <point x="262" y="-13"/>
      <point x="256" y="-13" type="curve" smooth="yes"/>
      <point x="243" y="-13" type="line"/>
      <point x="243" y="-119" type="line"/>
    </contour>
  </outline>
</glyph>
<glyph name="ampersand" format="2">
  <advance width="689"/>
  <unicode hex="0026"/>
  <outline>
    <contour>
      <point x="368" y="150" type="line"/>
      <point x="349.333" y="135.333"/>
      <point x="330.333" y="126"/>
      <point x="309" y="126" type="curve" smooth="yes"/>
      <point x="250.244" y="126"/>
      <point x="218" y="162.342"/>
      <point x="218" y="218" type="curve" smooth="yes"/>
      <point x="218" y="235.333"/>
      <point x="222" y="254"/>
      <point x="230" y="270" type="curve"/>
      <point x="239" y="263"/>
      <point x="256" y="247"/>
      <point x="265" y="239" type="curve" smooth="yes"/>
    </contour>
    <contour>
      <point x="562" y="-19" type="line"/>
      <point x="669" y="113" type="line"/>
      <point x="593" y="177" type="line"/>
      <point x="622.333" y="233"/>
      <point x="642.333" y="295.667"/>
      <point x="649" y="357" type="curve"/>
      <point x="489" y="421" type="line"/>
      <point x="483.667" y="383.667"/>
      <point x="473.333" y="337"/>
      <point x="456" y="293" type="curve"/>
      <point x="327" y="403" type="line"/>
      <point x="286.863" y="441.312"/>
      <point x="261" y="462.587"/>
      <point x="261" y="490" type="curve" smooth="yes"/>
      <point x="261" y="519.779"/>
      <point x="287.759" y="547"/>
      <point x="333" y="547" type="curve" smooth="yes"/>
      <point x="374.333" y="547"/>
      <point x="416.667" y="536.333"/>
      <point x="462" y="511" type="curve"/>
      <point x="511" y="635" type="line"/>
      <point x="453.667" y="676.333"/>
      <point x="386.333" y="696"/>
      <point x="309" y="696" type="curve" smooth="yes"/>
      <point x="175.204" y="696"/>
      <point x="83" y="600.979"/>
      <point x="83" y="493" type="curve" smooth="yes"/>
      <point x="83" y="451.667"/>
      <point x="94.667" y="419"/>
      <point x="116" y="387" type="curve"/>
      <point x="64" y="341.667"/>
      <point x="30" y="274.667"/>
      <point x="30" y="212" type="curve" smooth="yes"/>
      <point x="30" y="59.736"/>
      <point x="145.328" y="-24"/>
      <point x="305" y="-24" type="curve" smooth="yes"/>
      <point x="373" y="-24"/>
      <point x="436" y="3.667"/>
      <point x="488" y="45" type="curve"/>
    </contour>
  </outline>
</glyph>
<glyph name="quotesingle" format="2">
  <advance width="243"/>
  <unicode hex="0027"/>
  <outline>
    <contour>
      <point x="121" y="742" type="curve" smooth="yes"/>
      <point x="71.738" y="742"/>
      <point x="29" y="699.563"/>
      <point x="29" y="650" type="curve" smooth="yes"/>
      <point x="29" y="617.251"/>
      <point x="47.214" y="588.524"/>
      <point x="72" y="572" type="curve"/>
      <point x="66.667" y="554.667"/>
      <point x="38.667" y="531.667"/>
      <point x="20" y="521" type="curve"/>
      <point x="56" y="441" type="line"/>
      <point x="148.889" y="476.889"/>
      <point x="213" y="559.412"/>
      <point x="213" y="635" type="curve" smooth="yes"/>
      <point x="213" y="699"/>
      <point x="171.667" y="742"/>
    </contour>
  </outline>
</glyph>
<glyph name="parenleft" format="2">
  <advance width="370"/>
  <unicode hex="0028"/>
  <outline>
    <contour>
      <point x="339" y="-1" type="line"/>
      <point x="285.463" y="65.284"/>
      <point x="232" y="210.281"/>
      <point x="232" y="322" type="curve" smooth="yes"/>
      <point x="232" y="418.391"/>
      <point x="277.457" y="555.653"/>
      <point x="340" y="645" type="curve"/>
      <point x="177" y="682" type="line"/>
      <point x="97.15" y="566.217"/>
      <point x="50" y="450.484"/>
      <point x="50" y="321" type="curve" smooth="yes"/>
      <point x="50" y="188.042"/>
      <point x="99.004" y="64.994"/>
      <point x="177" y="-39" type="curve"/>
    </contour>
  </outline>
</glyph>
<glyph name="parenright" format="2">
  <advance width="370"/>
  <unicode hex="0029"/>
  <outline>
    <contour>
      <point x="31" y="644" type="line"/>
      <point x="84.537" y="577.716"/>
      <point x="138" y="432.719"/>
      <point x="138" y="321" type="curve" smooth="yes"/>
      <point x="138" y="216.932"/>
      <point x="87.287" y="79.839"/>
      <point x="30" y="-2" type="curve"/>
      <point x="193" y="-39" type="line"/>
      <point x="273.608" y="75.031"/>
      <point x="320" y="193.956"/>
      <point x="320" y="322" type="curve" smooth="yes"/>
      <point x="320" y="452.118"/>
      <point x="273.003" y="577.996"/>
      <point x="193" y="682" type="curve"/>
    </contour>
  </outline>
</glyph>
<glyph name="two" format="2">
  <advance width="497"/>
  <unicode hex="0032"/>
  <outline>
    <contour>
      <point x="477" y="0" type="line"/>
      <point x="25" y="0" type="line"/>
      <point x="25" y="106" type="line"/>
      <point x="214" y="270" type="line" smooth="yes"/>
      <point x="259.922" y="309.66"/>
      <point x="308" y="344.734"/>
      <point x="308" y="382" type="curve" smooth="yes"/>
      <point x="308" y="415.333"/>
      <point x="276" y="430"/>
      <point x="225" y="430" type="curve" smooth="yes"/>
      <point x="165" y="430"/>
      <point x="100.372" y="400.873"/>
      <point x="61" y="379" type="curve"/>
      <point x="38" y="527" type="line"/>
      <point x="75.333" y="549.667"/>
      <point x="142" y="579"/>
      <point x="231" y="579" type="curve" smooth="yes"/>
      <point x="359" y="579"/>
      <point x="470" y="538"/>
      <point x="470" y="403" type="curve" smooth="yes"/>
      <point x="470" y="309"/>
      <point x="396" y="239"/>
      <point x="324" y="178" type="curve" smooth="yes"/>
      <point x="283" y="143" type="line"/>
      <point x="465" y="143" type="line"/>
    </contour>
  </outline>
</glyph>
<glyph name="three" format="2">
  <advance width="536"/>
  <unicode hex="0033"/>
  <outline>
    <contour>
      <point x="255" y="579" type="curve" smooth="yes"/>
      <point x="176.333" y="579"/>
      <point x="91.667" y="561"/>
      <point x="21" y="505" type="curve"/>
      <point x="108" y="382" type="line"/>
      <point x="154.667" y="414"/>
      <point x="199.667" y="431"/>
      <point x="237" y="431" type="curve" smooth="yes"/>
      <point x="287.124" y="431"/>
      <point x="312" y="411.966"/>
      <point x="312" y="386" type="curve" smooth="yes"/>
      <point x="312" y="352.667"/>
      <point x="275.333" y="330"/>
      <point x="218" y="330" type="curve" smooth="yes"/>
      <point x="136" y="330" type="line"/>
      <point x="151" y="187" type="line"/>
      <point x="254" y="187" type="line" smooth="yes"/>
      <point x="294" y="187"/>
      <point x="323" y="164.667"/>
      <point x="323" y="126" type="curve" smooth="yes"/>
      <point x="323" y="92.659"/>
      <point x="290.293" y="69"/>
      <point x="244" y="69" type="curve" smooth="yes"/>
      <point x="197.333" y="69"/>
      <point x="154.333" y="83"/>
      <point x="97" y="119" type="curve"/>
      <point x="0" y="-2" type="line"/>
      <point x="76" y="-51.333"/>
      <point x="169.667" y="-78"/>
      <point x="243" y="-78" type="curve" smooth="yes"/>
      <point x="402.614" y="-78"/>
      <point x="511" y="3.768"/>
      <point x="511" y="121" type="curve" smooth="yes"/>
      <point x="511" y="182.54"/>
      <point x="471.109" y="245.103"/>
      <point x="425" y="272" type="curve"/>
      <point x="462.894" y="293.052"/>
      <point x="500" y="353.069"/>
      <point x="500" y="402" type="curve" smooth="yes"/>
      <point x="500" y="507.915"/>
      <point x="401.087" y="579"/>
    </contour>
  </outline>
</glyph>
<glyph name="five" format="2">
  <advance width="533"/>
  <unicode hex="0035"/>
  <outline>
    <contour>
      <point x="224" y="180" type="line"/>
      <point x="232" y="200"/>
      <point x="254.333" y="223"/>
      <point x="285" y="223" type="curve" smooth="yes"/>
      <point x="322.333" y="223"/>
      <point x="349" y="196.667"/>
      <point x="349" y="154" type="curve" smooth="yes"/>
      <point x="349" y="106"/>
      <point x="311.333" y="76"/>
      <point x="262" y="76" type="curve" smooth="yes"/>
      <point x="212.667" y="76"/>
      <point x="171" y="92.667"/>
      <point x="111" y="126" type="curve"/>
      <point x="20" y="-3" type="line"/>
      <point x="88.437" y="-49.295"/>
      <point x="182.675" y="-79"/>
      <point x="259" y="-79" type="curve" smooth="yes"/>
      <point x="417.814" y="-79"/>
      <point x="513" y="19.656"/>
      <point x="513" y="154" type="curve" smooth="yes"/>
      <point x="513" y="273.577"/>
      <point x="439.775" y="374"/>
      <point x="305" y="374" type="curve" smooth="yes"/>
      <point x="277" y="374"/>
      <point x="259" y="367.333"/>
      <point x="243" y="358" type="curve"/>
      <point x="243" y="423" type="line"/>
      <point x="466" y="423" type="line"/>
      <point x="484" y="566" type="line"/>
      <point x="90" y="566" type="line"/>
      <point x="71" y="180" type="line"/>
    </contour>
  </outline>
</glyph>
<glyph name="six" format="2">
  <advance width="585"/>
  <unicode hex="0036"/>
  <outline>
    <contour>
      <point x="114" y="294" type="curve"/>
      <point x="139" y="181" type="line"/>
      <point x="187.652" y="233.706"/>
      <point x="239.105" y="280"/>
      <point x="295" y="280" type="curve" smooth="yes"/>
      <point x="343.163" y="280"/>
      <point x="377" y="251.582"/>
      <point x="377" y="209" type="curve" smooth="yes"/>
      <point x="377" y="167.141"/>
      <point x="343.679" y="134"/>
      <point x="307" y="134" type="curve" smooth="yes"/>
      <point x="249.029" y="134"/>
      <point x="211" y="185.223"/>
      <point x="211" y="261" type="curve" smooth="yes"/>
      <point x="211" y="423"/>
      <point x="334" y="445"/>
      <point x="498" y="467" type="curve"/>
      <point x="480" y="634" type="line"/>
      <point x="233" y="619"/>
      <point x="20" y="509"/>
      <point x="20" y="252" type="curve" smooth="yes"/>
      <point x="20" y="96.376"/>
      <point x="139.537" y="-13"/>
      <point x="312" y="-13" type="curve" smooth="yes"/>
      <point x="468.115" y="-13"/>
      <point x="565" y="74.03"/>
      <point x="565" y="195" type="curve" smooth="yes"/>
      <point x="565" y="314.728"/>
      <point x="462.719" y="398"/>
      <point x="319" y="398" type="curve" smooth="yes"/>
      <point x="250.586" y="398"/>
      <point x="174.737" y="352.642"/>
    </contour>
  </outline>
</glyph>
<glyph name="eight" format="2">
  <advance width="572"/>
  <unicode hex="0038"/>
  <outline>
    <contour>
      <point x="287" y="643" type="curve" smooth="yes"/>
      <point x="161" y="643"/>
      <point x="42" y="577"/>
      <point x="42" y="457" type="curve" smooth="yes"/>
      <point x="42" y="411.667"/>
      <point x="71" y="369"/>
      <point x="103" y="341" type="curve"/>
      <point x="54.982" y="306.078"/>
      <point x="20" y="251.555"/>
      <point x="20" y="197" type="curve" smooth="yes"/>
      <point x="20" y="64.444"/>
      <point x="125.748" y="-13"/>
      <point x="287" y="-13" type="curve" smooth="yes"/>
      <point x="453.046" y="-13"/>
      <point x="552" y="71.878"/>
      <point x="552" y="197" type="curve" smooth="yes"/>
      <point x="552" y="254.19"/>
      <point x="516.627" y="307.564"/>
      <point x="470" y="340" type="curve"/>
      <point x="503.504" y="367.592"/>
      <point x="530" y="410.876"/>
      <point x="530" y="457" type="curve" smooth="yes"/>
      <point x="530" y="582"/>
      <point x="404" y="643"/>
    </contour>
    <contour>
      <point x="285" y="494" type="curve" smooth="yes"/>
      <point x="325" y="494"/>
      <point x="341" y="465.667"/>
      <point x="341" y="447" type="curve" smooth="yes"/>
      <point x="341" y="423.155"/>
      <point x="325" y="395"/>
      <point x="287" y="389" type="curve"/>
      <point x="250" y="394"/>
      <point x="231" y="422"/>
      <point x="231" y="446" type="curve" smooth="yes"/>
      <point x="231" y="467.119"/>
      <point x="250.118" y="494"/>
    </contour>
    <contour>
      <point x="287" y="283" type="curve"/>
      <point x="336" y="274"/>
      <point x="365" y="234.333"/>
      <point x="365" y="205" type="curve" smooth="yes"/>
      <point x="365" y="171.287"/>
      <point x="328.831" y="135"/>
      <point x="286" y="135" type="curve" smooth="yes"/>
      <point x="245.299" y="135"/>
      <point x="208" y="168.647"/>
      <point x="208" y="205" type="curve" smooth="yes"/>
      <point x="208" y="234.333"/>
      <point x="234" y="274"/>
    </contour>
  </outline>
</glyph>
<glyph name="nine" format="2">
  <advance width="585"/>
  <unicode hex="0039"/>
  <outline>
    <contour>
      <point x="471" y="272" type="curve"/>
      <point x="446" y="385" type="line"/>
      <point x="399.674" y="334.646"/>
      <point x="347" y="286"/>
      <point x="290" y="286" type="curve" smooth="yes"/>
      <point x="242" y="286"/>
      <point x="208" y="315"/>
      <point x="208" y="357" type="curve" smooth="yes"/>
      <point x="208" y="401"/>
      <point x="242.385" y="432"/>
      <point x="278" y="432" type="curve" smooth="yes"/>
      <point x="335.971" y="432"/>
      <point x="374" y="381"/>
      <point x="374" y="305" type="curve" smooth="yes"/>
      <point x="374" y="163"/>
      <point x="282" y="116"/>
      <point x="87" y="99" type="curve"/>
      <point x="105" y="-68" type="line"/>
      <point x="349" y="-53"/>
      <point x="565" y="56"/>
      <point x="565" y="314" type="curve" smooth="yes"/>
      <point x="565" y="468.616"/>
      <point x="446.969" y="579"/>
      <point x="273" y="579" type="curve" smooth="yes"/>
      <point x="119.662" y="579"/>
      <point x="20" y="495"/>
      <point x="20" y="371" type="curve" smooth="yes"/>
      <point x="20" y="251"/>
      <point x="122" y="168"/>
      <point x="266" y="168" type="curve" smooth="yes"/>
      <point x="335" y="168"/>
      <point x="410.038" y="213.14"/>
    </contour>
  </outline>
</glyph>
<glyph name="semicolon" format="2">
  <advance width="244"/>
  <unicode hex="003B"/>
  <outline>
    <contour>
      <point x="123" y="293" type="curve" smooth="yes"/>
      <point x="173.667" y="293"/>
      <point x="214" y="332"/>
      <point x="214" y="384" type="curve" smooth="yes"/>
      <point x="214" y="436"/>
      <point x="173.667" y="476"/>
      <point x="123" y="476" type="curve" smooth="yes"/>
      <point x="71" y="476"/>
      <point x="31" y="436"/>
      <point x="31" y="384" type="curve" smooth="yes"/>
      <point x="31" y="332"/>
      <point x="71" y="293"/>
    </contour>
    <contour>
      <point x="121" y="183" type="curve" smooth="yes"/>
      <point x="71.738" y="183"/>
      <point x="29" y="140.563"/>
      <point x="29" y="91" type="curve" smooth="yes"/>
      <point x="29" y="58.251"/>
      <point x="47.214" y="29.524"/>
      <point x="72" y="13" type="curve"/>
      <point x="66.667" y="-4.333"/>
      <point x="38.667" y="-27.333"/>
      <point x="20" y="-38" type="curve"/>
      <point x="56" y="-118" type="line"/>
      <point x="148.889" y="-82.111"/>
      <point x="213" y="0.412"/>
      <point x="213" y="76" type="curve" smooth="yes"/>
      <point x="213" y="140"/>
      <point x="171.667" y="183"/>
    </contour>
  </outline>
</glyph>
<glyph name="question" format="2">
  <advance width="467"/>
  <unicode hex="003F"/>
  <outline>
    <contour>
      <point x="201" y="701" type="curve" smooth="yes"/>
      <point x="142.333" y="701"/>
      <point x="78" y="687.667"/>
      <point x="10" y="649" type="curve"/>
      <point x="33" y="500" type="line"/>
      <point x="113" y="545.333"/>
      <point x="164.667" y="553"/>
      <point x="198" y="553" type="curve" smooth="yes"/>
      <point x="227.333" y="553"/>
      <point x="249" y="537.333"/>
      <point x="249" y="512" type="curve" smooth="yes"/>
      <point x="249" y="476"/>
      <point x="186" y="430"/>
      <point x="98" y="402" type="curve"/>
      <point x="105" y="243" type="line"/>
      <point x="248" y="204" type="line"/>
      <point x="260" y="319" type="line"/>
      <point x="383.956" y="363.547"/>
      <point x="437" y="427.142"/>
      <point x="437" y="509" type="curve" smooth="yes"/>
      <point x="437" y="624.359"/>
      <point x="340.671" y="701"/>
    </contour>
    <contour>
      <point x="167" y="183" type="curve" smooth="yes"/>
      <point x="115" y="183"/>
      <point x="75" y="143"/>
      <point x="75" y="91" type="curve" smooth="yes"/>
      <point x="75" y="39"/>
      <point x="115" y="0"/>
      <point x="167" y="0" type="curve" smooth="yes"/>
      <point x="217.667" y="0"/>
      <point x="258" y="39"/>
      <point x="258" y="91" type="curve" smooth="yes"/>
      <point x="258" y="143"/>
      <point x="217.667" y="183"/>
    </contour>
  </outline>
</glyph>
<glyph name="at" format="2">
  <advance width="812"/>
  <unicode hex="0040"/>
  <outline>
    <contour>
      <point x="589" y="383" type="line"/>
      <point x="548" y="444" type="line"/>
      <point x="459" y="444" type="line" smooth="yes"/>
      <point x="349.078" y="444"/>
      <point x="221" y="395.626"/>
      <point x="221" y="229" type="curve" smooth="yes"/>
      <point x="221" y="127.667"/>
      <point x="280" y="57"/>
      <point x="408" y="57" type="curve" smooth="yes"/>
      <point x="437.333" y="57"/>
      <point x="463" y="64"/>
      <point x="487" y="76" type="curve"/>
      <point x="505.667" y="60"/>
      <point x="531.667" y="54"/>
      <point x="557" y="54" type="curve" smooth="yes"/>
      <point x="665.462" y="54"/>
      <point x="792" y="144.957"/>
      <point x="792" y="309" type="curve" smooth="yes"/>
      <point x="792" y="483.61"/>
      <point x="637.144" y="630"/>
      <point x="433" y="630" type="curve" smooth="yes"/>
      <point x="165.657" y="630"/>
      <point x="20" y="438.343"/>
      <point x="20" y="238" type="curve" smooth="yes"/>
      <point x="20" y="10.574"/>
      <point x="204.15" y="-111"/>
      <point x="414" y="-111" type="curve" smooth="yes"/>
      <point x="479.333" y="-111"/>
      <point x="550" y="-106"/>
      <point x="634" y="-62" type="curve"/>
      <point x="590" y="39" type="line"/>
      <point x="548.112" y="23.768"/>
      <point x="473.865" y="16"/>
      <point x="423" y="16" type="curve" smooth="yes"/>
      <point x="278.888" y="16"/>
      <point x="179" y="100.262"/>
      <point x="179" y="231" type="curve" smooth="yes"/>
      <point x="179" y="390.274"/>
      <point x="287.07" y="494"/>
      <point x="439" y="494" type="curve" smooth="yes"/>
      <point x="588" y="494"/>
      <point x="643" y="395"/>
      <point x="643" y="304" type="curve" smooth="yes"/>
      <point x="643" y="232.006"/>
      <point x="587.257" y="191"/>
      <point x="571" y="191" type="curve" smooth="yes"/>
      <point x="567" y="191"/>
      <point x="564.667" y="193.333"/>
      <point x="566" y="200" type="curve" smooth="yes"/>
    </contour>
    <contour>
      <point x="406" y="199" type="curve" smooth="yes"/>
      <point x="377.901" y="199"/>
      <point x="367" y="220.215"/>
      <point x="367" y="237" type="curve" smooth="yes"/>
      <point x="367" y="285.837"/>
      <point x="389.532" y="325"/>
      <point x="438" y="325" type="curve" smooth="yes"/>
      <point x="440" y="325" type="line"/>
      <point x="428" y="231" type="line"/>
      <point x="426.667" y="225.667"/>
      <point x="426" y="211.667"/>
      <point x="426" y="205" type="curve"/>
      <point x="424.667" y="201"/>
      <point x="412.667" y="199"/>
    </contour>
  </outline>
</glyph>
<glyph name="B" format="2">
  <advance width="645"/>
  <unicode hex="0042"/>
  <outline>
    <contour>
      <point x="337" y="0" type="line"/>
      <point x="490.025" y="0"/>
      <point x="625" y="50.213"/>
      <point x="625" y="203" type="curve" smooth="yes"/>
      <point x="625" y="268.333"/>
      <point x="587.333" y="323.667"/>
      <point x="534" y="361" type="curve"/>
      <point x="564.667" y="391.667"/>
      <point x="597" y="430.667"/>
      <point x="597" y="484" type="curve" smooth="yes"/>
      <point x="597" y="620.549"/>
      <point x="472.115" y="680"/>
      <point x="317" y="680" type="curve" smooth="yes"/>
      <point x="80" y="680" type="line"/>
      <point x="80" y="0" type="line"/>
    </contour>
    <contour>
      <point x="311" y="537" type="line"/>
      <point x="371.653" y="537"/>
      <point x="409" y="515.654"/>
      <point x="409" y="475" type="curve" smooth="yes"/>
      <point x="409" y="439.996"/>
      <point x="359.599" y="422"/>
      <point x="303" y="422" type="curve" smooth="yes"/>
      <point x="262" y="422" type="line"/>
      <point x="262" y="537" type="line"/>
    </contour>
    <contour>
      <point x="339" y="279" type="line"/>
      <point x="400.333" y="279"/>
      <point x="437" y="252.333"/>
      <point x="437" y="207" type="curve" smooth="yes"/>
      <point x="437" y="165.746"/>
      <point x="398.483" y="143"/>
      <point x="341" y="143" type="curve" smooth="yes"/>
      <point x="262" y="143" type="line"/>
      <point x="262" y="279" type="line"/>
    </contour>
  </outline>
</glyph>
<glyph name="C" format="2">
  <advance width="596"/>
  <unicode hex="0043"/>
  <anchor x="357" y="0" name="bottom"/>
  <anchor x="364" y="680" name="top"/>
  <outline>
    <contour>
      <point x="579" y="637" type="line"/>
      <point x="531.426" y="669.936"/>
      <point x="454.112" y="693"/>
      <point x="379" y="693" type="curve" smooth="yes"/>
      <point x="173.301" y="693"/>
      <point x="30" y="541.874"/>
      <point x="30" y="337" type="curve" smooth="yes"/>
      <point x="30" y="134.282"/>
      <point x="158.739" y="-13"/>
      <point x="383" y="-13" type="curve" smooth="yes"/>
      <point x="458.634" y="-13"/>
      <point x="539.134" y="8.159"/>
      <point x="586" y="37" type="curve"/>
      <point x="517" y="173" type="line"/>
      <point x="482.333" y="151.667"/>
      <point x="437.333" y="136"/>
      <point x="388" y="136" type="curve" smooth="yes"/>
      <point x="303.515" y="136"/>
      <point x="218" y="208.966"/>
      <point x="218" y="338" type="curve" smooth="yes"/>
      <point x="218" y="446"/>
      <point x="288" y="544"/>
      <point x="381" y="544" type="curve" smooth="yes"/>
      <point x="427.713" y="544"/>
      <point x="465.063" y="535.644"/>
      <point x="525" y="514" type="curve"/>
    </contour>
  </outline>
</glyph>
<glyph name="D" format="2">
  <advance width="739"/>
  <unicode hex="0044"/>
  <anchor x="360" y="680" name="top"/>
  <outline>
    <contour>
      <point x="384" y="0" type="line"/>
      <point x="577.256" y="0"/>
      <point x="709" y="133.935"/>
      <point x="709" y="344" type="curve" smooth="yes"/>
      <point x="709" y="542.881"/>
      <point x="593.684" y="680"/>
      <point x="388" y="680" type="curve" smooth="yes"/>
      <point x="80" y="680" type="line"/>
      <point x="80" y="0" type="line"/>
    </contour>
    <contour>
      <point x="379" y="537" type="line"/>
      <point x="466.219" y="537"/>
      <point x="521" y="462.757"/>
      <point x="521" y="344" type="curve" smooth="yes"/>
      <point x="521" y="214.484"/>
      <point x="459.338" y="143"/>
      <point x="372" y="143" type="curve" smooth="yes"/>
      <point x="262" y="143" type="line"/>
      <point x="262" y="537" type="line"/>
    </contour>
  </outline>
</glyph>
<glyph name="G" format="2">
  <advance width="666"/>
  <unicode hex="0047"/>
  <outline>
    <contour>
      <point x="393" y="-13" type="curve" smooth="yes"/>
      <point x="480.607" y="-13"/>
      <point x="583.197" y="10.66"/>
      <point x="626" y="37" type="curve"/>
      <point x="626" y="392" type="line"/>
      <point x="361" y="392" type="line"/>
      <point x="345" y="259" type="line"/>
      <point x="462" y="259" type="line"/>
      <point x="462" y="142" type="line"/>
      <point x="439.333" y="138"/>
      <point x="416.667" y="136"/>
      <point x="398" y="136" type="curve" smooth="yes"/>
      <point x="285" y="136"/>
      <point x="218" y="221"/>
      <point x="218" y="338" type="curve" smooth="yes"/>
      <point x="218" y="478.6"/>
      <point x="320.4" y="544"/>
      <point x="401" y="544" type="curve" smooth="yes"/>
      <point x="445.101" y="544"/>
      <point x="500.728" y="537.209"/>
      <point x="565" y="514" type="curve"/>
      <point x="619" y="637" type="line"/>
      <point x="573.905" y="668.22"/>
      <point x="480.791" y="693"/>
      <point x="399" y="693" type="curve" smooth="yes"/>
      <point x="197.481" y="693"/>
      <point x="30" y="561.429"/>
      <point x="30" y="337" type="curve" smooth="yes"/>
      <point x="30" y="109.511"/>
      <point x="177.159" y="-13"/>
    </contour>
  </outline>
</glyph>
<glyph name="I" format="2">
  <advance width="342"/>
  <unicode hex="0049"/>
  <outline>
    <contour>
      <point x="262" y="0" type="line"/>
      <point x="262" y="680" type="line"/>
      <point x="80" y="680" type="line"/>
      <point x="80" y="0" type="line"/>
    </contour>
  </outline>
</glyph>
<glyph name="J" format="2">
  <advance width="345"/>
  <unicode hex="004A"/>
  <outline>
    <contour>
      <point x="93" y="137" type="line" smooth="yes"/>
      <point x="93" y="98.062"/>
      <point x="79.137" y="66.029"/>
      <point x="10" y="38" type="curve"/>
      <point x="84" y="-106" type="line"/>
      <point x="201" y="-68"/>
      <point x="275" y="-31"/>
      <point x="275" y="84" type="curve" smooth="yes"/>
      <point x="275" y="680" type="line"/>
      <point x="93" y="680" type="line"/>
    </contour>
  </outline>
</glyph>
<glyph name="L" format="2">
  <advance width="578"/>
  <unicode hex="004C"/>
  <outline>
    <contour>
      <point x="551" y="143" type="line"/>
      <point x="262" y="143" type="line"/>
      <point x="262" y="680" type="line"/>
      <point x="80" y="680" type="line"/>
      <point x="80" y="0" type="line"/>
      <point x="568" y="0" type="line"/>
    </contour>
  </outline>
</glyph>
<glyph name="O" format="2">
  <advance width="763"/>
  <unicode hex="004F"/>
  <outline>
    <contour>
      <point x="381" y="-14" type="curve" smooth="yes"/>
      <point x="163" y="-14"/>
      <point x="30" y="143"/>
      <point x="30" y="337" type="curve" smooth="yes"/>
      <point x="30" y="545"/>
      <point x="173" y="694"/>
      <point x="381" y="694" type="curve" smooth="yes"/>
      <point x="604" y="694"/>
      <point x="733" y="538"/>
      <point x="733" y="344" type="curve" smooth="yes"/>
      <point x="733" y="138"/>
      <point x="595" y="-14"/>
    </contour>
    <contour>
      <point x="380" y="138" type="curve" smooth="yes"/>
      <point x="476.428" y="138"/>
      <point x="546" y="210.726"/>
      <point x="546" y="344" type="curve" smooth="yes"/>
      <point x="546" y="461.723"/>
      <point x="481.776" y="542"/>
      <point x="383" y="542" type="curve" smooth="yes"/>
      <point x="290.865" y="542"/>
      <point x="217" y="458.48"/>
      <point x="217" y="338" type="curve" smooth="yes"/>
      <point x="217" y="218.409"/>
      <point x="280.986" y="138"/>
    </contour>
  </outline>
</glyph>
<glyph name="P" format="2">
  <advance width="666"/>
  <unicode hex="0050"/>
  <outline>
    <contour>
      <point x="262" y="0" type="line"/>
      <point x="262" y="198" type="line"/>
      <point x="358" y="198" type="line" smooth="yes"/>
      <point x="506.71" y="198"/>
      <point x="646" y="271.987"/>
      <point x="646" y="435" type="curve" smooth="yes"/>
      <point x="646" y="592.966"/>
      <point x="527.481" y="680"/>
      <point x="366" y="680" type="curve" smooth="yes"/>
      <point x="80" y="680" type="line"/>
      <point x="80" y="0" type="line"/>
    </contour>
    <contour>
      <point x="360" y="537" type="line"/>
      <point x="421.742" y="537"/>
      <point x="458" y="494.171"/>
      <point x="458" y="435" type="curve" smooth="yes"/>
      <point x="458" y="384.07"/>
      <point x="419.686" y="341"/>
      <point x="362" y="341" type="curve" smooth="yes"/>
      <point x="262" y="341" type="line"/>
      <point x="262" y="537" type="line"/>
    </contour>
  </outline>
</glyph>
<glyph name="Q" format="2">
  <advance width="763"/>
  <unicode hex="0051"/>
  <outline>
    <contour>
      <point x="456" y="331" type="line"/>
      <point x="336" y="229" type="line"/>
      <point x="605" y="-52" type="line"/>
      <point x="717" y="45" type="line"/>
    </contour>
    <contour>
      <point x="381" y="694" type="curve" smooth="yes"/>
      <point x="182" y="694"/>
      <point x="30" y="553"/>
      <point x="30" y="337" type="curve" smooth="yes"/>
      <point x="30" y="126"/>
      <point x="178" y="-14"/>
      <point x="381" y="-14" type="curve" smooth="yes"/>
      <point x="587" y="-14"/>
      <point x="733" y="130"/>
      <point x="733" y="344" type="curve" smooth="yes"/>
      <point x="733" y="557"/>
      <point x="586" y="694"/>
    </contour>
    <contour>
      <point x="217" y="338" type="curve" smooth="yes"/>
      <point x="217" y="458.48"/>
      <point x="290.865" y="542"/>
      <point x="383" y="542" type="curve" smooth="yes"/>
      <point x="481.776" y="542"/>
      <point x="546" y="461.723"/>
      <point x="546" y="344" type="curve" smooth="yes"/>
      <point x="546" y="210.726"/>
      <point x="476.428" y="138"/>
      <point x="380" y="138" type="curve" smooth="yes"/>
      <point x="280.986" y="138"/>
      <point x="217" y="218.409"/>
    </contour>
  </outline>
</glyph>
<glyph name="R" format="2">
  <advance width="714"/>
  <unicode hex="0052"/>
  <outline>
    <contour>
      <point x="360" y="537" type="line"/>
      <point x="422.481" y="537"/>
      <point x="458" y="506.773"/>
      <point x="458" y="448" type="curve" smooth="yes"/>
      <point x="458" y="396.062"/>
      <point x="419.324" y="357"/>
      <point x="362" y="357" type="curve" smooth="yes"/>
      <point x="262" y="357" type="line"/>
      <point x="262" y="537" type="line"/>
    </contour>
    <contour>
      <point x="80" y="680" type="line"/>
      <point x="80" y="0" type="line"/>
      <point x="262" y="0" type="line"/>
      <point x="262" y="214" type="line"/>
      <point x="323" y="214" type="line" smooth="yes"/>
      <point x="342" y="214"/>
      <point x="364" y="214"/>
      <point x="383" y="214" type="curve"/>
      <point x="493" y="0" type="line"/>
      <point x="704" y="0" type="line"/>
      <point x="554" y="268" type="line"/>
      <point x="608.667" y="305.333"/>
      <point x="646" y="365.333"/>
      <point x="646" y="448" type="curve" smooth="yes"/>
      <point x="646" y="605.53"/>
      <point x="527.784" y="680"/>
      <point x="366" y="680" type="curve" smooth="yes"/>
    </contour>
  </outline>
</glyph>
<glyph name="S" format="2">
  <advance width="547"/>
  <unicode hex="0053"/>
  <outline>
    <contour>
      <point x="33" y="42" type="line"/>
      <point x="89.441" y="8.136"/>
      <point x="190.746" y="-13"/>
      <point x="256" y="-13" type="curve" smooth="yes"/>
      <point x="421.412" y="-13"/>
      <point x="527" y="69.716"/>
      <point x="527" y="187" type="curve" smooth="yes"/>
      <point x="527" y="296.775"/>
      <point x="423.335" y="359.305"/>
      <point x="321" y="419" type="curve" smooth="yes"/>
      <point x="271.229" y="448.494"/>
      <point x="218" y="465.929"/>
      <point x="218" y="496" type="curve" smooth="yes"/>
      <point x="218" y="521.333"/>
      <point x="243.667" y="544"/>
      <point x="285" y="544" type="curve" smooth="yes"/>
      <point x="331.713" y="544"/>
      <point x="369.063" y="535.644"/>
      <point x="429" y="514" type="curve"/>
      <point x="483" y="637" type="line"/>
      <point x="429.667" y="673"/>
      <point x="351" y="693"/>
      <point x="283" y="693" type="curve" smooth="yes"/>
      <point x="130.404" y="693"/>
      <point x="32.043" y="612.412"/>
      <point x="30" y="498" type="curve" smooth="yes"/>
      <point x="30" y="382.295"/>
      <point x="141.184" y="324.252"/>
      <point x="234" y="268" type="curve" smooth="yes"/>
      <point x="287.598" y="237.078"/>
      <point x="339" y="212.964"/>
      <point x="339" y="189" type="curve" smooth="yes"/>
      <point x="339" y="164.035"/>
      <point x="307.715" y="136"/>
      <point x="251" y="136" type="curve" smooth="yes"/>
      <point x="195.698" y="136"/>
      <point x="125.486" y="160.952"/>
      <point x="93" y="179" type="curve"/>
    </contour>
  </outline>
</glyph>
<glyph name="U" format="2">
  <advance width="750"/>
  <unicode hex="0055"/>
  <outline>
    <contour>
      <point x="252" y="680" type="line"/>
      <point x="70" y="680" type="line"/>
      <point x="70" y="260" type="line" smooth="yes"/>
      <point x="70" y="87.562"/>
      <point x="187.56" y="-14"/>
      <point x="375" y="-14" type="curve" smooth="yes"/>
      <point x="562.367" y="-14"/>
      <point x="680" y="87.208"/>
      <point x="680" y="260" type="curve" smooth="yes"/>
      <point x="680" y="680" type="line"/>
      <point x="498" y="680" type="line"/>
      <point x="498" y="269" type="line" smooth="yes"/>
      <point x="498" y="186.303"/>
      <point x="447.887" y="138"/>
      <point x="375" y="138" type="curve" smooth="yes"/>
      <point x="301.487" y="138"/>
      <point x="252" y="184.43"/>
      <point x="252" y="269" type="curve" smooth="yes"/>
    </contour>
  </outline>
</glyph>
<glyph name="a" format="2">
  <advance width="509"/>
  <unicode hex="0061"/>
  <anchor x="264" y="0" name="bottom"/>
  <anchor x="262" y="485" name="top"/>
  <outline>
    <contour>
      <point x="184" y="159" type="curve" smooth="yes"/>
      <point x="184" y="181.667"/>
      <point x="201" y="198"/>
      <point x="225" y="198" type="curve" smooth="yes"/>
      <point x="281" y="198" type="line"/>
      <point x="281" y="152" type="line"/>
      <point x="259.667" y="134.667"/>
      <point x="238.333" y="125"/>
      <point x="217" y="125" type="curve" smooth="yes"/>
      <point x="198.548" y="125"/>
      <point x="184" y="139.525"/>
    </contour>
    <contour>
      <point x="214" y="-11" type="curve" smooth="yes"/>
      <point x="255" y="-11"/>
      <point x="292.333" y="11.333"/>
      <point x="323" y="50" type="curve"/>
      <point x="375" y="0" type="line"/>
      <point x="463" y="0" type="line"/>
      <point x="463" y="300" type="line" smooth="yes"/>
      <point x="463" y="425.56"/>
      <point x="392.109" y="502"/>
      <point x="262" y="502" type="curve" smooth="yes"/>
      <point x="186.177" y="502"/>
      <point x="106.387" y="482.948"/>
      <point x="48" y="456" type="curve"/>
      <point x="96" y="325" type="line"/>
      <point x="133.333" y="341"/>
      <point x="183.667" y="354"/>
      <point x="217" y="354" type="curve" smooth="yes"/>
      <point x="247.667" y="354"/>
      <point x="272.333" y="339"/>
      <point x="279" y="303" type="curve" smooth="yes"/>
      <point x="280" y="298" type="line"/>
      <point x="222" y="298" type="line" smooth="yes"/>
      <point x="110" y="298"/>
      <point x="32" y="261.333"/>
      <point x="32" y="156" type="curve" smooth="yes"/>
      <point x="32" y="56"/>
      <point x="91" y="-11"/>
    </contour>
  </outline>
</glyph>
<glyph name="b" format="2">
  <advance width="583"/>
  <unicode hex="0062"/>
  <outline>
    <contour>
      <point x="152" y="0" type="line"/>
      <point x="242" y="91" type="line"/>
      <point x="242" y="706" type="line"/>
      <point x="60" y="695" type="line"/>
      <point x="60" y="0" type="line"/>
    </contour>
    <contour>
      <point x="306" y="-11" type="curve" smooth="yes"/>
      <point x="451" y="-11"/>
      <point x="563" y="69"/>
      <point x="563" y="249" type="curve" smooth="yes"/>
      <point x="563" y="421"/>
      <point x="462" y="502"/>
      <point x="314" y="502" type="curve" smooth="yes"/>
      <point x="235" y="502"/>
      <point x="166" y="454"/>
      <point x="132" y="413" type="curve"/>
      <point x="183" y="296" type="line"/>
      <point x="225" y="339"/>
      <point x="256" y="362"/>
      <point x="286" y="362" type="curve" smooth="yes"/>
      <point x="344" y="362"/>
      <point x="375" y="321"/>
      <point x="375" y="248" type="curve" smooth="yes"/>
      <point x="375" y="175"/>
      <point x="340" y="129"/>
      <point x="294" y="129" type="curve" smooth="yes"/>
      <point x="258" y="129"/>
      <point x="220" y="151"/>
      <point x="183" y="185" type="curve"/>
      <point x="132" y="78" type="line"/>
      <point x="188" y="14"/>
      <point x="246" y="-11"/>
    </contour>
  </outline>
</glyph>
<glyph name="c" format="2">
  <advance width="457"/>
  <unicode hex="0063"/>
  <anchor x="283" y="0" name="bottom"/>
  <anchor x="261" y="485" name="top"/>
  <outline>
    <contour>
      <point x="285" y="-11" type="curve" smooth="yes"/>
      <point x="322" y="-11"/>
      <point x="394" y="-7"/>
      <point x="451" y="38" type="curve"/>
      <point x="400" y="163" type="line"/>
      <point x="363" y="144"/>
      <point x="337" y="137"/>
      <point x="303" y="137" type="curve" smooth="yes"/>
      <point x="257" y="137"/>
      <point x="208" y="171"/>
      <point x="208" y="242" type="curve" smooth="yes"/>
      <point x="208" y="316"/>
      <point x="257" y="354"/>
      <point x="303" y="354" type="curve" smooth="yes"/>
      <point x="339" y="354"/>
      <point x="363" y="347"/>
      <point x="400" y="328" type="curve"/>
      <point x="451" y="453" type="line"/>
      <point x="397" y="496"/>
      <point x="332" y="502"/>
      <point x="285" y="502" type="curve" smooth="yes"/>
      <point x="140" y="502"/>
      <point x="20" y="417"/>
      <point x="20" y="242" type="curve" smooth="yes"/>
      <point x="20" y="69"/>
      <point x="139" y="-11"/>
    </contour>
  </outline>
</glyph>
<glyph name="e" format="2">
  <advance width="533"/>
  <unicode hex="0065"/>
  <anchor x="353" y="0" name="bottom"/>
  <anchor x="282" y="485" name="top"/>
  <outline>
    <contour>
      <point x="310" y="-11" type="curve" smooth="yes"/>
      <point x="395" y="-11"/>
      <point x="474" y="13"/>
      <point x="512" y="41" type="curve"/>
      <point x="461" y="164" type="line"/>
      <point x="430" y="148"/>
      <point x="385" y="131"/>
      <point x="328" y="131" type="curve" smooth="yes"/>
      <point x="262" y="131"/>
      <point x="231" y="160"/>
      <point x="218" y="197" type="curve"/>
      <point x="513" y="197" type="line"/>
      <point x="513" y="250" type="line" smooth="yes"/>
      <point x="513" y="380"/>
      <point x="443" y="502"/>
      <point x="281" y="502" type="curve" smooth="yes"/>
      <point x="145" y="502"/>
      <point x="20" y="416"/>
      <point x="20" y="242" type="curve" smooth="yes"/>
      <point x="20" y="68"/>
      <point x="153" y="-11"/>
    </contour>
    <contour>
      <point x="339" y="287" type="curve"/>
      <point x="213" y="287" type="line"/>
      <point x="213" y="326"/>
      <point x="243" y="356"/>
      <point x="276" y="356" type="curve" smooth="yes"/>
      <point x="326" y="356"/>
      <point x="339" y="310"/>
    </contour>
  </outline>
</glyph>
<glyph name="f" format="2">
  <advance width="451"/>
  <unicode hex="0066"/>
  <outline>
    <contour>
      <point x="272" y="0" type="line"/>
      <point x="272" y="322" type="line"/>
      <point x="423" y="322" type="line"/>
      <point x="406" y="465" type="line"/>
      <point x="272" y="465" type="line"/>
      <point x="272" y="489" type="line" smooth="yes"/>
      <point x="272" y="524"/>
      <point x="281" y="555"/>
      <point x="329" y="555" type="curve" smooth="yes"/>
      <point x="348" y="555"/>
      <point x="375" y="550"/>
      <point x="399" y="536" type="curve"/>
      <point x="451" y="660" type="line"/>
      <point x="427" y="682"/>
      <point x="363" y="703"/>
      <point x="310" y="703" type="curve" smooth="yes"/>
      <point x="208" y="703"/>
      <point x="90" y="645"/>
      <point x="90" y="510" type="curve" smooth="yes"/>
      <point x="90" y="465" type="line"/>
      <point x="10" y="465" type="line"/>
      <point x="10" y="322" type="line"/>
      <point x="90" y="322" type="line"/>
      <point x="90" y="0" type="line"/>
    </contour>
  </outline>
</glyph>
<glyph name="g" format="2">
  <advance width="579"/>
  <unicode hex="0067"/>
  <anchor x="278" y="485" name="top"/>
  <outline>
    <contour>
      <point x="256" y="-230" type="curve" smooth="yes"/>
      <point x="421" y="-230"/>
      <point x="523" y="-139"/>
      <point x="523" y="-16" type="curve" smooth="yes"/>
      <point x="523" y="484" type="line"/>
      <point x="432" y="484" type="line"/>
      <point x="341" y="370" type="line"/>
      <point x="341" y="-15" type="line" smooth="yes"/>
      <point x="341" y="-54"/>
      <point x="300" y="-83"/>
      <point x="243" y="-83" type="curve" smooth="yes"/>
      <point x="199" y="-83"/>
      <point x="151" y="-76"/>
      <point x="89" y="-46" type="curve"/>
      <point x="34" y="-174" type="line"/>
      <point x="104" y="-217"/>
      <point x="218" y="-230"/>
    </contour>
    <contour>
      <point x="269" y="-11" type="curve" smooth="yes"/>
      <point x="355" y="-11"/>
      <point x="423" y="44"/>
      <point x="451" y="78" type="curve"/>
      <point x="400" y="195" type="line"/>
      <point x="358" y="152"/>
      <point x="327" y="129"/>
      <point x="297" y="129" type="curve" smooth="yes"/>
      <point x="245" y="129"/>
      <point x="208" y="164"/>
      <point x="208" y="243" type="curve" smooth="yes"/>
      <point x="208" y="325"/>
      <point x="249" y="362"/>
      <point x="289" y="362" type="curve" smooth="yes"/>
      <point x="325" y="362"/>
      <point x="363" y="340"/>
      <point x="400" y="306" type="curve"/>
      <point x="451" y="413" type="line"/>
      <point x="395" y="477"/>
      <point x="337" y="502"/>
      <point x="261" y="502" type="curve" smooth="yes"/>
      <point x="130" y="502"/>
      <point x="20" y="420"/>
      <point x="20" y="242" type="curve" smooth="yes"/>
      <point x="20" y="59"/>
      <point x="135" y="-11"/>
    </contour>
  </outline>
</glyph>
<glyph name="h" format="2">
  <advance width="620"/>
  <unicode hex="0068"/>
  <outline>
    <contour>
      <point x="574" y="0" type="line"/>
      <point x="574" y="313" type="line" smooth="yes"/>
      <point x="574" y="419"/>
      <point x="523" y="501"/>
      <point x="398" y="501" type="curve" smooth="yes"/>
      <point x="314" y="501"/>
      <point x="242" y="461"/>
      <point x="200" y="435" type="curve"/>
      <point x="242" y="326" type="line"/>
      <point x="269" y="339"/>
      <point x="320" y="354"/>
      <point x="340" y="354" type="curve" smooth="yes"/>
      <point x="383" y="354"/>
      <point x="392" y="324"/>
      <point x="392" y="296" type="curve" smooth="yes"/>
      <point x="392" y="0" type="line"/>
    </contour>
    <contour>
      <point x="242" y="0" type="line"/>
      <point x="242" y="706" type="line"/>
      <point x="60" y="695" type="line"/>
      <point x="60" y="0" type="line"/>
    </contour>
  </outline>
</glyph>
<glyph name="j" format="2">
  <advance width="302"/>
  <unicode hex="006A"/>
  <outline>
    <contour>
      <point x="156" y="551" type="curve" smooth="yes"/>
      <point x="211" y="551"/>
      <point x="256" y="595"/>
      <point x="256" y="649" type="curve" smooth="yes"/>
      <point x="256" y="704"/>
      <point x="211" y="749"/>
      <point x="156" y="749" type="curve" smooth="yes"/>
      <point x="102" y="749"/>
      <point x="58" y="704"/>
      <point x="58" y="649" type="curve" smooth="yes"/>
      <point x="58" y="597"/>
      <point x="107" y="551"/>
    </contour>
    <contour>
      <point x="62" y="-194" type="line"/>
      <point x="196" y="-151"/>
      <point x="248" y="-107"/>
      <point x="248" y="2" type="curve" smooth="yes"/>
      <point x="248" y="485" type="line"/>
      <point x="66" y="485" type="line"/>
      <point x="66" y="29" type="line" smooth="yes"/>
      <point x="66" y="-11"/>
      <point x="59" y="-38"/>
      <point x="-10" y="-63" type="curve"/>
    </contour>
  </outline>
</glyph>
<glyph name="k" format="2">
  <advance width="567"/>
  <unicode hex="006B"/>
  <anchor x="307" y="0" name="bottom"/>
  <outline>
    <contour>
      <point x="567" y="0" type="line"/>
      <point x="403" y="277" type="line"/>
      <point x="532" y="374" type="line"/>
      <point x="423" y="499" type="line"/>
      <point x="242" y="346" type="line"/>
      <point x="242" y="706" type="line"/>
      <point x="60" y="695" type="line"/>
      <point x="60" y="0" type="line"/>
      <point x="242" y="0" type="line"/>
      <point x="242" y="156" type="line"/>
      <point x="275" y="181" type="line"/>
      <point x="371" y="0" type="line"/>
    </contour>
  </outline>
</glyph>
<glyph name="m" format="2">
  <advance width="921"/>
  <unicode hex="006D"/>
  <outline>
    <contour>
      <point x="554" y="0" type="line"/>
      <point x="554" y="313" type="line" smooth="yes"/>
      <point x="554" y="427"/>
      <point x="506" y="501"/>
      <point x="383" y="501" type="curve" smooth="yes"/>
      <point x="306" y="501"/>
      <point x="237" y="464"/>
      <point x="190" y="435" type="curve"/>
      <point x="158" y="485" type="line"/>
      <point x="50" y="485" type="line"/>
      <point x="50" y="0" type="line"/>
      <point x="232" y="0" type="line"/>
      <point x="232" y="326" type="line"/>
      <point x="259" y="339"/>
      <point x="308" y="354"/>
      <point x="325" y="354" type="curve" smooth="yes"/>
      <point x="365" y="354"/>
      <point x="372" y="334"/>
      <point x="372" y="296" type="curve" smooth="yes"/>
      <point x="372" y="0" type="line"/>
    </contour>
    <contour>
      <point x="875" y="0" type="line"/>
      <point x="875" y="313" type="line" smooth="yes"/>
      <point x="875" y="427"/>
      <point x="827" y="501"/>
      <point x="704" y="501" type="curve" smooth="yes"/>
      <point x="627" y="501"/>
      <point x="558" y="464"/>
      <point x="511" y="435" type="curve"/>
      <point x="553" y="326" type="line"/>
      <point x="580" y="339"/>
      <point x="629" y="354"/>
      <point x="646" y="354" type="curve" smooth="yes"/>
      <point x="686" y="354"/>
      <point x="693" y="334"/>
      <point x="693" y="296" type="curve" smooth="yes"/>
      <point x="693" y="0" type="line"/>
    </contour>
  </outline>
</glyph>
<glyph name="n" format="2">
  <advance width="610"/>
  <unicode hex="006E"/>
  <outline>
    <contour>
      <point x="564" y="0" type="line"/>
      <point x="564" y="313" type="line" smooth="yes"/>
      <point x="564" y="419"/>
      <point x="513" y="501"/>
      <point x="388" y="501" type="curve" smooth="yes"/>
      <point x="304" y="501"/>
      <point x="232" y="461"/>
      <point x="190" y="435" type="curve"/>
      <point x="158" y="485" type="line"/>
      <point x="50" y="485" type="line"/>
      <point x="50" y="0" type="line"/>
      <point x="232" y="0" type="line"/>
      <point x="232" y="326" type="line"/>
      <point x="259" y="339"/>
      <point x="310" y="354"/>
      <point x="330" y="354" type="curve" smooth="yes"/>
      <point x="371" y="354"/>
      <point x="382" y="326"/>
      <point x="382" y="296" type="curve" smooth="yes"/>
      <point x="382" y="0" type="line"/>
    </contour>
  </outline>
</glyph>
<glyph name="o" format="2">
  <advance width="590"/>
  <unicode hex="006F"/>
  <outline>
    <contour>
      <point x="291" y="-11" type="curve" smooth="yes"/>
      <point x="436" y="-11"/>
      <point x="570" y="62"/>
      <point x="570" y="240" type="curve" smooth="yes"/>
      <point x="570" y="412"/>
      <point x="458" y="502"/>
      <point x="295" y="502" type="curve" smooth="yes"/>
      <point x="145" y="502"/>
      <point x="20" y="417"/>
      <point x="20" y="245" type="curve" smooth="yes"/>
      <point x="20" y="62"/>
      <point x="145" y="-11"/>
    </contour>
    <contour>
      <point x="293" y="137" type="curve" smooth="yes"/>
      <point x="235" y="137"/>
      <point x="208" y="185"/>
      <point x="208" y="245" type="curve" smooth="yes"/>
      <point x="208" y="309"/>
      <point x="237" y="354"/>
      <point x="297" y="354" type="curve" smooth="yes"/>
      <point x="354" y="354"/>
      <point x="382" y="302"/>
      <point x="382" y="240" type="curve" smooth="yes"/>
      <point x="382" y="171"/>
      <point x="349" y="137"/>
    </contour>
  </outline>
</glyph>
<glyph name="p" format="2">
  <advance width="579"/>
  <unicode hex="0070"/>
  <outline>
    <contour>
      <point x="56" y="-219" type="line"/>
      <point x="238" y="-209" type="line"/>
      <point x="238" y="393" type="line"/>
      <point x="147" y="484" type="line"/>
      <point x="56" y="484" type="line"/>
    </contour>
    <contour>
      <point x="302" y="-11" type="curve" smooth="yes"/>
      <point x="447" y="-11"/>
      <point x="559" y="69"/>
      <point x="559" y="249" type="curve" smooth="yes"/>
      <point x="559" y="421"/>
      <point x="458" y="502"/>
      <point x="310" y="502" type="curve" smooth="yes"/>
      <point x="231" y="502"/>
      <point x="162" y="454"/>
      <point x="128" y="413" type="curve"/>
      <point x="179" y="296" type="line"/>
      <point x="221" y="339"/>
      <point x="252" y="362"/>
      <point x="282" y="362" type="curve" smooth="yes"/>
      <point x="340" y="362"/>
      <point x="371" y="321"/>
      <point x="371" y="248" type="curve" smooth="yes"/>
      <point x="371" y="175"/>
      <point x="336" y="129"/>
      <point x="290" y="129" type="curve" smooth="yes"/>
      <point x="254" y="129"/>
      <point x="216" y="151"/>
      <point x="179" y="185" type="curve"/>
      <point x="128" y="78" type="line"/>
      <point x="184" y="14"/>
      <point x="242" y="-11"/>
    </contour>
  </outline>
</glyph>
<glyph name="q" format="2">
  <advance width="579"/>
  <unicode hex="0071"/>
  <outline>
    <contour>
      <point x="341" y="-219" type="line"/>
      <point x="523" y="-208" type="line"/>
      <point x="523" y="484" type="line"/>
      <point x="432" y="484" type="line"/>
      <point x="341" y="389" type="line"/>
    </contour>
    <contour>
      <point x="269" y="-11" type="curve" smooth="yes"/>
      <point x="355" y="-11"/>
      <point x="423" y="44"/>
      <point x="451" y="78" type="curve"/>
      <point x="400" y="195" type="line"/>
      <point x="358" y="152"/>
      <point x="327" y="129"/>
      <point x="297" y="129" type="curve" smooth="yes"/>
      <point x="245" y="129"/>
      <point x="208" y="164"/>
      <point x="208" y="243" type="curve" smooth="yes"/>
      <point x="208" y="325"/>
      <point x="249" y="362"/>
      <point x="289" y="362" type="curve" smooth="yes"/>
      <point x="325" y="362"/>
      <point x="363" y="340"/>
      <point x="400" y="306" type="curve"/>
      <point x="451" y="413" type="line"/>
      <point x="395" y="477"/>
      <point x="337" y="502"/>
      <point x="277" y="502" type="curve" smooth="yes"/>
      <point x="130" y="502"/>
      <point x="20" y="420"/>
      <point x="20" y="242" type="curve" smooth="yes"/>
      <point x="20" y="59"/>
      <point x="135" y="-11"/>
    </contour>
  </outline>
</glyph>
<glyph name="r" format="2">
  <advance width="395"/>
  <unicode hex="0072"/>
  <outline>
    <contour>
      <point x="232" y="0" type="line"/>
      <point x="232" y="285" type="line"/>
      <point x="273" y="316"/>
      <point x="337" y="339"/>
      <point x="385" y="339" type="curve"/>
      <point x="348" y="485" type="line"/>
      <point x="294" y="485"/>
      <point x="224" y="453"/>
      <point x="185" y="425" type="curve"/>
      <point x="141" y="484" type="line"/>
      <point x="50" y="484" type="line"/>
      <point x="50" y="0" type="line"/>
    </contour>
  </outline>
</glyph>
<glyph name="s" format="2">
  <advance width="451"/>
  <unicode hex="0073"/>
  <outline>
    <contour>
      <point x="229" y="-11" type="curve" smooth="yes"/>
      <point x="371" y="-11"/>
      <point x="431" y="55"/>
      <point x="431" y="151" type="curve" smooth="yes"/>
      <point x="431" y="222"/>
      <point x="373" y="266"/>
      <point x="308" y="293" type="curve" smooth="yes"/>
      <point x="242" y="321"/>
      <point x="210" y="326"/>
      <point x="210" y="342" type="curve" smooth="yes"/>
      <point x="210" y="356"/>
      <point x="232" y="364"/>
      <point x="260" y="364" type="curve" smooth="yes"/>
      <point x="296" y="364"/>
      <point x="342" y="351"/>
      <point x="379" y="335" type="curve"/>
      <point x="430" y="450" type="line"/>
      <point x="374" y="494"/>
      <point x="285" y="502"/>
      <point x="247" y="502" type="curve" smooth="yes"/>
      <point x="113" y="502"/>
      <point x="32" y="442"/>
      <point x="32" y="340" type="curve" smooth="yes"/>
      <point x="32" y="265"/>
      <point x="97" y="224"/>
      <point x="157" y="198" type="curve" smooth="yes"/>
      <point x="207" y="176"/>
      <point x="253" y="164"/>
      <point x="253" y="149" type="curve" smooth="yes"/>
      <point x="253" y="134"/>
      <point x="235" y="127"/>
      <point x="211" y="127" type="curve" smooth="yes"/>
      <point x="158" y="127"/>
      <point x="112" y="144"/>
      <point x="73" y="161" type="curve"/>
      <point x="22" y="46" type="line"/>
      <point x="79" y="1"/>
      <point x="190" y="-11"/>
    </contour>
  </outline>
</glyph>
<glyph name="t" format="2">
  <advance width="456"/>
  <unicode hex="0074"/>
  <outline>
    <contour>
      <point x="312" y="-11" type="curve" smooth="yes"/>
      <point x="362" y="-11"/>
      <point x="422" y="12"/>
      <point x="446" y="32" type="curve"/>
      <point x="394" y="156" type="line"/>
      <point x="370" y="142"/>
      <point x="343" y="137"/>
      <point x="324" y="137" type="curve" smooth="yes"/>
      <point x="290" y="137"/>
      <point x="267" y="161"/>
      <point x="267" y="202" type="curve" smooth="yes"/>
      <point x="267" y="322" type="line"/>
      <point x="411" y="322" type="line"/>
      <point x="394" y="465" type="line"/>
      <point x="267" y="465" type="line"/>
      <point x="267" y="621" type="line"/>
      <point x="85" y="596" type="line"/>
      <point x="85" y="465" type="line"/>
      <point x="10" y="465" type="line"/>
      <point x="10" y="322" type="line"/>
      <point x="85" y="322" type="line"/>
      <point x="85" y="182" type="line" smooth="yes"/>
      <point x="85" y="38"/>
      <point x="216" y="-11"/>
    </contour>
  </outline>
</glyph>
<glyph name="u" format="2">
  <advance width="610"/>
  <unicode hex="0075"/>
  <outline>
    <contour>
      <point x="222" y="-17" type="curve" smooth="yes"/>
      <point x="304" y="-17"/>
      <point x="378" y="23"/>
      <point x="420" y="49" type="curve"/>
      <point x="472" y="-1" type="line"/>
      <point x="560" y="-1" type="line"/>
      <point x="560" y="484" type="line"/>
      <point x="378" y="484" type="line"/>
      <point x="378" y="158" type="line"/>
      <point x="351" y="146"/>
      <point x="304" y="130"/>
      <point x="280" y="130" type="curve" smooth="yes"/>
      <point x="239" y="130"/>
      <point x="228" y="160"/>
      <point x="228" y="188" type="curve" smooth="yes"/>
      <point x="228" y="484" type="line"/>
      <point x="46" y="484" type="line"/>
      <point x="46" y="171" type="line" smooth="yes"/>
      <point x="46" y="66"/>
      <point x="97" y="-17"/>
    </contour>
  </outline>
</glyph>
<glyph name="y" format="2">
  <advance width="561"/>
  <unicode hex="0079"/>
  <outline>
    <contour>
      <point x="117" y="-219" type="line"/>
      <point x="208" y="-198"/>
      <point x="305" y="-140"/>
      <point x="338" y="-57" type="curve" smooth="yes"/>
      <point x="551" y="485" type="line"/>
      <point x="370" y="485" type="line"/>
      <point x="277" y="211" type="line"/>
      <point x="178" y="503" type="line"/>
      <point x="10" y="455" type="line"/>
      <point x="184" y="9" type="line"/>
      <point x="177" y="-10" type="line" smooth="yes"/>
      <point x="170" y="-29"/>
      <point x="151" y="-38"/>
      <point x="56" y="-78" type="curve"/>
    </contour>
  </outline>
</glyph>
<glyph name="braceleft" format="2">
  <advance width="349"/>
  <unicode hex="007B"/>
  <outline>
    <contour>
      <point x="252" y="310" type="curve"/>
      <point x="265.333" y="319.333"/>
      <point x="286" y="333.333"/>
      <point x="286" y="372" type="curve" smooth="yes"/>
      <point x="286" y="426"/>
      <point x="251" y="437"/>
      <point x="251" y="482" type="curve" smooth="yes"/>
      <point x="251" y="500.667"/>
      <point x="259.667" y="517"/>
      <point x="289" y="517" type="curve" smooth="yes"/>
      <point x="326" y="517" type="line"/>
      <point x="339" y="659" type="line"/>
      <point x="226" y="659" type="line" smooth="yes"/>
      <point x="127.333" y="659"/>
      <point x="84" y="609"/>
      <point x="84" y="533" type="curve" smooth="yes"/>
      <point x="84" y="477"/>
      <point x="117" y="449"/>
      <point x="117" y="411" type="curve" smooth="yes"/>
      <point x="117" y="388"/>
      <point x="96.333" y="373"/>
      <point x="75" y="373" type="curve" smooth="yes"/>
      <point x="30" y="373" type="line"/>
      <point x="30" y="247" type="line"/>
      <point x="75" y="247" type="line" smooth="yes"/>
      <point x="96.333" y="247"/>
      <point x="117" y="232"/>
      <point x="117" y="209" type="curve" smooth="yes"/>
      <point x="117" y="175"/>
      <point x="84" y="128"/>
      <point x="84" y="87" type="curve" smooth="yes"/>
      <point x="84" y="11"/>
      <point x="127.333" y="-39"/>
      <point x="226" y="-39" type="curve" smooth="yes"/>
      <point x="339" y="-39" type="line"/>
      <point x="326" y="103" type="line"/>
      <point x="289" y="103" type="line" smooth="yes"/>
      <point x="259.667" y="103"/>
      <point x="251" y="119.333"/>
      <point x="251" y="138" type="curve" smooth="yes"/>
      <point x="251" y="188"/>
      <point x="286" y="196"/>
      <point x="286" y="248" type="curve" smooth="yes"/>
      <point x="286" y="285.333"/>
      <point x="265.333" y="300.667"/>
    </contour>
  </outline>
</glyph>
<glyph name="braceright" format="2">
  <advance width="349"/>
  <unicode hex="007D"/>
  <outline>
    <contour>
      <point x="97" y="310" type="curve"/>
      <point x="83.667" y="300.667"/>
      <point x="63" y="286.667"/>
      <point x="63" y="248" type="curve" smooth="yes"/>
      <point x="63" y="197"/>
      <point x="98" y="189"/>
      <point x="98" y="138" type="curve" smooth="yes"/>
      <point x="98" y="119.333"/>
      <point x="89.333" y="103"/>
      <point x="60" y="103" type="curve" smooth="yes"/>
      <point x="23" y="103" type="line"/>
      <point x="10" y="-39" type="line"/>
      <point x="123" y="-39" type="line" smooth="yes"/>
      <point x="221.667" y="-39"/>
      <point x="265" y="11"/>
      <point x="265" y="87" type="curve" smooth="yes"/>
      <point x="265" y="134"/>
      <point x="232" y="184"/>
      <point x="232" y="209" type="curve" smooth="yes"/>
      <point x="232" y="232"/>
      <point x="252.667" y="247"/>
      <point x="274" y="247" type="curve" smooth="yes"/>
      <point x="319" y="247" type="line"/>
      <point x="319" y="373" type="line"/>
      <point x="274" y="373" type="line" smooth="yes"/>
      <point x="252.667" y="373"/>
      <point x="232" y="388"/>
      <point x="232" y="411" type="curve" smooth="yes"/>
      <point x="232" y="444"/>
      <point x="265" y="482"/>
      <point x="265" y="533" type="curve" smooth="yes"/>
      <point x="265" y="609"/>
      <point x="221.667" y="659"/>
      <point x="123" y="659" type="curve" smooth="yes"/>
      <point x="10" y="659" type="line"/>
      <point x="23" y="517" type="line"/>
      <point x="60" y="517" type="line" smooth="yes"/>
      <point x="89.333" y="517"/>
      <point x="98" y="500.667"/>
      <point x="98" y="482" type="curve" smooth="yes"/>
      <point x="98" y="429"/>
      <point x="63" y="426"/>
      <point x="63" y="372" type="curve" smooth="yes"/>
      <point x="63" y="334.667"/>
      <point x="83.667" y="319.333"/>
    </contour>
  </outline>
</glyph>
<glyph name="asciitilde" format="2">
  <advance width="565"/>
  <unicode hex="007E"/>
  <outline>
    <contour>
      <point x="30" y="175" type="curve"/>
      <point x="173" y="175" type="line"/>
      <point x="173" y="196.333"/>
      <point x="192.667" y="224"/>
      <point x="218" y="224" type="curve" smooth="yes"/>
      <point x="251.333" y="224"/>
      <point x="277.333" y="216"/>
      <point x="304" y="208" type="curve" smooth="yes"/>
      <point x="334.667" y="198.667"/>
      <point x="363" y="190"/>
      <point x="399" y="190" type="curve" smooth="yes"/>
      <point x="498.614" y="190"/>
      <point x="535" y="276.606"/>
      <point x="535" y="400" type="curve"/>
      <point x="409" y="400" type="line"/>
      <point x="409" y="378.667"/>
      <point x="392.333" y="351"/>
      <point x="367" y="351" type="curve" smooth="yes"/>
      <point x="337.667" y="351"/>
      <point x="306.667" y="359.667"/>
      <point x="276" y="369" type="curve" smooth="yes"/>
      <point x="248" y="377"/>
      <point x="219.333" y="385"/>
      <point x="190" y="385" type="curve" smooth="yes"/>
      <point x="88.804" y="385"/>
      <point x="30" y="300.386"/>
    </contour>
  </outline>
</glyph>
<glyph name="cent" format="2">
  <advance width="457"/>
  <unicode hex="00A2"/>
  <outline>
    <contour>
      <point x="362" y="460" type="line"/>
      <point x="362" y="631" type="line"/>
      <point x="212" y="618" type="line"/>
      <point x="212" y="456" type="line"/>
    </contour>
    <contour>
      <point x="362" y="51" type="line"/>
      <point x="212" y="54" type="line"/>
      <point x="212" y="-125" type="line"/>
      <point x="362" y="-125" type="line"/>
    </contour>
    <contour>
      <point x="400" y="163" type="line"/>
      <point x="361.333" y="143"/>
      <point x="335" y="137"/>
      <point x="303" y="137" type="curve" smooth="yes"/>
      <point x="256.474" y="137"/>
      <point x="208" y="171.354"/>
      <point x="208" y="242" type="curve" smooth="yes"/>
      <point x="208" y="314.118"/>
      <point x="256.494" y="354"/>
      <point x="303" y="354" type="curve" smooth="yes"/>
      <point x="337.667" y="354"/>
      <point x="361.333" y="348"/>
      <point x="400" y="328" type="curve"/>
      <point x="451" y="453" type="line"/>
      <point x="395.062" y="496.952"/>
      <point x="326.186" y="502"/>
      <point x="285" y="502" type="curve" smooth="yes"/>
      <point x="132.782" y="502"/>
      <point x="20" y="410.592"/>
      <point x="20" y="242" type="curve" smooth="yes"/>
      <point x="20" y="80.945"/>
      <point x="125.744" y="-11"/>
      <point x="285" y="-11" type="curve" smooth="yes"/>
      <point x="326.186" y="-11"/>
      <point x="395.062" y="-5.952"/>
      <point x="451" y="38" type="curve"/>
    </contour>
  </outline>
</glyph>
<glyph name="sterling" format="2">
  <advance width="522"/>
  <unicode hex="00A3"/>
  <outline>
    <contour>
      <point x="49" y="0" type="line"/>
      <point x="512" y="0" type="line"/>
      <point x="495" y="143" type="line"/>
      <point x="298" y="143" type="line"/>
      <point x="300.667" y="156.333"/>
      <point x="303" y="172"/>
      <point x="303" y="188" type="curve" smooth="yes"/>
      <point x="303" y="268" type="line"/>
      <point x="453" y="268" type="line"/>
      <point x="436" y="411" type="line"/>
      <point x="303" y="411" type="line"/>
      <point x="303" y="471" type="line" smooth="yes"/>
      <point x="303" y="511"/>
      <point x="327.333" y="536"/>
      <point x="370" y="536" type="curve" smooth="yes"/>
      <point x="387.333" y="536"/>
      <point x="417.333" y="530.333"/>
      <point x="440" y="517" type="curve"/>
      <point x="492" y="641" type="line"/>
      <point x="467.755" y="663.225"/>
      <point x="403.844" y="684"/>
      <point x="358" y="684" type="curve" smooth="yes"/>
      <point x="226.592" y="684"/>
      <point x="121" y="615.463"/>
      <point x="121" y="491" type="curve" smooth="yes"/>
      <point x="121" y="411" type="line"/>
      <point x="40" y="411" type="line"/>
      <point x="40" y="268" type="line"/>
      <point x="121" y="268" type="line"/>
      <point x="121" y="208" type="line" smooth="yes"/>
      <point x="121" y="169.333"/>
      <point x="101.667" y="144.333"/>
      <point x="39" y="143" type="curve"/>
    </contour>
  </outline>
</glyph>
<glyph name="currency" format="2">
  <advance width="813"/>
  <unicode hex="00A4"/>
  <outline>
    <contour>
      <point x="167" y="-103" type="line"/>
      <point x="279" y="15" type="line"/>
      <point x="315" y="-2.333"/>
      <point x="363" y="-10.667"/>
      <point x="407" y="-12" type="curve" smooth="yes"/>
      <point x="451" y="-10.667"/>
      <point x="498" y="-1.333"/>
      <point x="534" y="16" type="curve"/>
      <point x="641" y="-98" type="line"/>
      <point x="783" y="20" type="line"/>
      <point x="654" y="136" type="line"/>
      <point x="670" y="169.333"/>
      <point x="680" y="210.667"/>
      <point x="680" y="252" type="curve" smooth="yes"/>
      <point x="680" y="293.333"/>
      <point x="669.667" y="332.667"/>
      <point x="655" y="366" type="curve"/>
      <point x="771" y="480" type="line"/>
      <point x="646" y="604" type="line"/>
      <point x="534" y="486" type="line"/>
      <point x="498" y="503.333"/>
      <point x="450" y="512"/>
      <point x="406" y="512" type="curve" smooth="yes"/>
      <point x="362" y="512"/>
      <point x="315" y="502.333"/>
      <point x="279" y="485" type="curve"/>
      <point x="172" y="599" type="line"/>
      <point x="30" y="481" type="line"/>
      <point x="159" y="365" type="line"/>
      <point x="143" y="331.667"/>
      <point x="133" y="290.333"/>
      <point x="133" y="249" type="curve" smooth="yes"/>
      <point x="133" y="207.667"/>
      <point x="143.333" y="168.333"/>
      <point x="158" y="135" type="curve"/>
      <point x="42" y="21" type="line"/>
    </contour>
    <contour>
      <point x="501" y="251" type="curve" smooth="yes"/>
      <point x="501" y="200.475"/>
      <point x="462.546" y="159"/>
      <point x="407" y="159" type="curve" smooth="yes"/>
      <point x="353.343" y="159"/>
      <point x="313.991" y="198.227"/>
      <point x="312" y="250" type="curve"/>
      <point x="314.059" y="303.535"/>
      <point x="351.281" y="342"/>
      <point x="406" y="342" type="curve" smooth="yes"/>
      <point x="460.454" y="342"/>
      <point x="501" y="303.022"/>
    </contour>
  </outline>
</glyph>
<glyph name="section" format="2">
  <advance width="710"/>
  <unicode hex="00A7"/>
  <outline>
    <contour>
      <point x="419" y="74" type="line"/>
      <point x="584.307" y="74"/>
      <point x="690" y="158.131"/>
      <point x="690" y="274" type="curve" smooth="yes"/>
      <point x="690" y="383.775"/>
      <point x="586.335" y="446.305"/>
      <point x="484" y="506" type="curve" smooth="yes"/>
      <point x="434.229" y="535.494"/>
      <point x="381" y="552.929"/>
      <point x="381" y="583" type="curve" smooth="yes"/>
      <point x="381" y="608.333"/>
      <point x="406.667" y="631"/>
      <point x="448" y="631" type="curve" smooth="yes"/>
      <point x="494.713" y="631"/>
      <point x="532.063" y="622.644"/>
      <point x="592" y="601" type="curve"/>
      <point x="646" y="724" type="line"/>
      <point x="592.667" y="760"/>
      <point x="514" y="780"/>
      <point x="446" y="780" type="curve" smooth="yes"/>
      <point x="293.404" y="780"/>
      <point x="195.043" y="699.412"/>
      <point x="193" y="585" type="curve" smooth="yes"/>
      <point x="193" y="469.295"/>
      <point x="304.184" y="411.252"/>
      <point x="397" y="355" type="curve" smooth="yes"/>
      <point x="450.598" y="324.078"/>
      <point x="502" y="299.964"/>
      <point x="502" y="276" type="curve" smooth="yes"/>
      <point x="502" y="250.667"/>
      <point x="471.333" y="223"/>
      <point x="414" y="223" type="curve"/>
    </contour>
    <contour>
      <point x="33" y="-64" type="line"/>
      <point x="89.441" y="-97.864"/>
      <point x="190.746" y="-119"/>
      <point x="256" y="-119" type="curve" smooth="yes"/>
      <point x="421.412" y="-119"/>
      <point x="527" y="-36.284"/>
      <point x="527" y="81" type="curve" smooth="yes"/>
      <point x="527" y="190.775"/>
      <point x="423.335" y="253.305"/>
      <point x="321" y="313" type="curve" smooth="yes"/>
      <point x="271.229" y="342.494"/>
      <point x="218" y="359.929"/>
      <point x="218" y="390" type="curve" smooth="yes"/>
      <point x="218" y="415.333"/>
      <point x="243.667" y="438"/>
      <point x="285" y="438" type="curve"/>
      <point x="283" y="587" type="line"/>
      <point x="130.404" y="587"/>
      <point x="32.043" y="506.412"/>
      <point x="30" y="392" type="curve" smooth="yes"/>
      <point x="30" y="276.295"/>
      <point x="141.184" y="218.252"/>
      <point x="234" y="162" type="curve" smooth="yes"/>
      <point x="287.598" y="131.078"/>
      <point x="339" y="106.964"/>
      <point x="339" y="83" type="curve" smooth="yes"/>
      <point x="339" y="58.035"/>
      <point x="307.715" y="30"/>
      <point x="251" y="30" type="curve" smooth="yes"/>
      <point x="195.698" y="30"/>
      <point x="125.486" y="54.952"/>
      <point x="93" y="73" type="curve"/>
    </contour>
  </outline>
</glyph>
<glyph name="copyright" format="2">
  <advance width="825"/>
  <unicode hex="00A9"/>
  <outline>
    <contour>
      <point x="805" y="336" type="curve" smooth="yes"/>
      <point x="805" y="547.299"/>
      <point x="650.762" y="716"/>
      <point x="412" y="716" type="curve" smooth="yes"/>
      <point x="179.533" y="716"/>
      <point x="20" y="549.601"/>
      <point x="20" y="336" type="curve" smooth="yes"/>
      <point x="20" y="128.524"/>
      <point x="179.274" y="-42"/>
      <point x="412" y="-42" type="curve" smooth="yes"/>
      <point x="649.41" y="-42"/>
      <point x="805" y="128.736"/>
    </contour>
    <contour>
      <point x="155" y="337" type="curve" smooth="yes"/>
      <point x="155" y="484.056"/>
      <point x="258.899" y="593"/>
      <point x="412" y="593" type="curve" smooth="yes"/>
      <point x="583.395" y="593"/>
      <point x="668" y="482.504"/>
      <point x="668" y="337" type="curve" smooth="yes"/>
      <point x="668" y="191.178"/>
      <point x="566.09" y="82"/>
      <point x="412" y="82" type="curve" smooth="yes"/>
      <point x="258.875" y="82"/>
      <point x="155" y="191.235"/>
    </contour>
    <contour>
      <point x="424" y="115" type="curve" smooth="yes"/>
      <point x="464.409" y="115"/>
      <point x="521.615" y="120.487"/>
      <point x="569" y="158" type="curve"/>
      <point x="525" y="267" type="line"/>
      <point x="491.667" y="249.667"/>
      <point x="468" y="244"/>
      <point x="440" y="244" type="curve" smooth="yes"/>
      <point x="397.333" y="244"/>
      <point x="357" y="276"/>
      <point x="357" y="336" type="curve" smooth="yes"/>
      <point x="357" y="399.402"/>
      <point x="400.104" y="434"/>
      <point x="440" y="434" type="curve" smooth="yes"/>
      <point x="472.103" y="434"/>
      <point x="495.432" y="427.632"/>
      <point x="525" y="411" type="curve"/>
      <point x="569" y="520" type="line"/>
      <point x="522.482" y="558.765"/>
      <point x="462.278" y="563"/>
      <point x="424" y="563" type="curve" smooth="yes"/>
      <point x="294.526" y="563"/>
      <point x="193" y="484.339"/>
      <point x="193" y="336" type="curve" smooth="yes"/>
      <point x="193" y="195.159"/>
      <point x="286.042" y="115"/>
    </contour>
  </outline>
</glyph>
<glyph name="registered" format="2">
  <advance width="723"/>
  <unicode hex="00AE"/>
  <outline>
    <contour>
      <point x="703" y="475" type="curve" smooth="yes"/>
      <point x="703" y="659"/>
      <point x="582" y="815"/>
      <point x="361" y="815" type="curve" smooth="yes"/>
      <point x="154.822" y="815"/>
      <point x="20" y="671.319"/>
      <point x="20" y="475" type="curve" smooth="yes"/>
      <point x="20" y="284.111"/>
      <point x="153.218" y="138"/>
      <point x="361" y="138" type="curve" smooth="yes"/>
      <point x="575" y="138"/>
      <point x="703" y="289"/>
    </contour>
    <contour>
      <point x="131" y="476" type="curve" smooth="yes"/>
      <point x="131" y="616.052"/>
      <point x="221.156" y="710"/>
      <point x="361" y="710" type="curve" smooth="yes"/>
      <point x="502.775" y="710"/>
      <point x="592" y="613.188"/>
      <point x="592" y="476" type="curve" smooth="yes"/>
      <point x="592" y="349.319"/>
      <point x="511.207" y="244.086"/>
      <point x="361" y="242" type="curve" smooth="yes"/>
      <point x="211.826" y="244.072"/>
      <point x="131" y="347.225"/>
    </contour>
    <contour>
      <point x="350" y="574" type="line"/>
      <point x="382.645" y="574"/>
      <point x="401" y="565.078"/>
      <point x="401" y="534" type="curve" smooth="yes"/>
      <point x="401" y="507.057"/>
      <point x="382.374" y="492"/>
      <point x="350" y="492" type="curve" smooth="yes"/>
      <point x="319" y="492" type="line"/>
      <point x="319" y="574" type="line"/>
    </contour>
    <contour>
      <point x="517" y="300" type="line"/>
      <point x="459" y="436" type="line"/>
      <point x="492.333" y="456"/>
      <point x="517" y="488.667"/>
      <point x="517" y="534" type="curve" smooth="yes"/>
      <point x="517" y="615.139"/>
      <point x="447.469" y="656"/>
      <point x="363" y="656" type="curve" smooth="yes"/>
      <point x="214" y="656" type="line"/>
      <point x="214" y="300" type="line"/>
      <point x="319" y="300" type="line"/>
      <point x="319" y="412" type="line"/>
      <point x="337" y="412" type="line" smooth="yes"/>
      <point x="340.333" y="412"/>
      <point x="352.333" y="412"/>
      <point x="355" y="412" type="curve"/>
      <point x="398" y="300" type="line"/>
    </contour>
  </outline>
</glyph>
<glyph name="degree" format="2">
  <advance width="295"/>
  <unicode hex="00B0"/>
  <outline>
    <contour>
      <point x="148" y="720" type="curve" smooth="yes"/>
      <point x="72.016" y="720"/>
      <point x="10" y="661.739"/>
      <point x="10" y="588" type="curve" smooth="yes"/>
      <point x="10" y="516.446"/>
      <point x="67.145" y="457"/>
      <point x="148" y="457" type="curve" smooth="yes"/>
      <point x="223.707" y="457"/>
      <point x="285" y="515.115"/>
      <point x="285" y="588" type="curve" smooth="yes"/>
      <point x="285" y="663.296"/>
      <point x="218.782" y="720"/>
    </contour>
    <contour>
      <point x="175" y="586" type="curve" smooth="yes"/>
      <point x="175" y="572.667"/>
      <point x="163.667" y="560"/>
      <point x="149" y="560" type="curve" smooth="yes"/>
      <point x="135.667" y="560"/>
      <point x="123" y="574.667"/>
      <point x="123" y="588" type="curve" smooth="yes"/>
      <point x="123" y="601.333"/>
      <point x="135.667" y="614"/>
      <point x="149" y="614" type="curve" smooth="yes"/>
      <point x="163.667" y="614"/>
      <point x="175" y="600.667"/>
    </contour>
  </outline>
</glyph>
<glyph name="mu" format="2">
  <advance width="620"/>
  <unicode hex="00B5"/>
  <outline>
    <contour>
      <point x="238" y="-209" type="line"/>
      <point x="238" y="393" type="line"/>
      <point x="56" y="389" type="line"/>
      <point x="56" y="-219" type="line"/>
    </contour>
    <contour>
      <point x="388" y="484" type="line"/>
      <point x="388" y="158" type="line"/>
      <point x="350.41" y="141.89"/>
      <point x="310.649" y="130"/>
      <point x="290" y="130" type="curve" smooth="yes"/>
      <point x="250" y="130"/>
      <point x="238" y="158.667"/>
      <point x="238" y="188" type="curve" smooth="yes"/>
      <point x="238" y="484" type="line"/>
      <point x="56" y="484" type="line"/>
      <point x="56" y="171" type="line" smooth="yes"/>
      <point x="56" y="57.934"/>
      <point x="113.423" y="-17"/>
      <point x="232" y="-17" type="curve" smooth="yes"/>
      <point x="308.497" y="-17"/>
      <point x="379.932" y="17.707"/>
      <point x="430" y="49" type="curve"/>
      <point x="462" y="-1" type="line"/>
      <point x="570" y="-1" type="line"/>
      <point x="570" y="484" type="line"/>
    </contour>
  </outline>
</glyph>
<glyph name="paragraph" format="2">
  <advance width="1053"/>
  <unicode hex="00B6"/>
  <outline>
    <contour>
      <point x="534" y="0" type="line"/>
      <point x="534" y="537" type="line"/>
      <point x="713" y="537" type="line"/>
      <point x="713" y="0" type="line"/>
      <point x="895" y="0" type="line"/>
      <point x="895" y="537" type="line"/>
      <point x="1033" y="537" type="line"/>
      <point x="1033" y="680" type="line"/>
      <point x="315" y="680" type="line" smooth="yes"/>
      <point x="145" y="680"/>
      <point x="20" y="609"/>
      <point x="20" y="439" type="curve" smooth="yes"/>
      <point x="20" y="271.571"/>
      <point x="158.89" y="191"/>
      <point x="328" y="191" type="curve" smooth="yes"/>
      <point x="353" y="191" type="line"/>
      <point x="353" y="0" type="line"/>
    </contour>
  </outline>
</glyph>
<glyph name="cedilla" format="2">
  <advance width="277"/>
  <unicode hex="00B8"/>
  <outline>
    <contour>
      <point x="50" y="-94" type="line"/>
      <point x="92.847" y="-98.285"/>
      <point x="135" y="-106.837"/>
      <point x="135" y="-132" type="curve" smooth="yes"/>
      <point x="135" y="-144"/>
      <point x="121.333" y="-150"/>
      <point x="104" y="-150" type="curve" smooth="yes"/>
      <point x="85.333" y="-150"/>
      <point x="61.333" y="-140.333"/>
      <point x="48" y="-135" type="curve"/>
      <point x="10" y="-221" type="line"/>
      <point x="43.333" y="-246.333"/>
      <point x="87.333" y="-262"/>
      <point x="126" y="-262" type="curve" smooth="yes"/>
      <point x="203.269" y="-262"/>
      <point x="267" y="-214.584"/>
      <point x="267" y="-142" type="curve" smooth="yes"/>
      <point x="267" y="-104.317"/>
      <point x="245.985" y="-54.035"/>
      <point x="199" y="-39" type="curve"/>
      <point x="219" y="13" type="line"/>
      <point x="93" y="13" type="line"/>
    </contour>
  </outline>
</glyph>
<glyph name="questiondown" format="2">
  <advance width="467"/>
  <unicode hex="00BF"/>
  <outline>
    <contour>
      <point x="300" y="481" type="curve" smooth="yes"/>
      <point x="352" y="481"/>
      <point x="392" y="521"/>
      <point x="392" y="573" type="curve" smooth="yes"/>
      <point x="392" y="625"/>
      <point x="352" y="664"/>
      <point x="300" y="664" type="curve" smooth="yes"/>
      <point x="249.333" y="664"/>
      <point x="209" y="625"/>
      <point x="209" y="573" type="curve" smooth="yes"/>
      <point x="209" y="521"/>
      <point x="249.333" y="481"/>
    </contour>
    <contour>
      <point x="266" y="-37" type="curve" smooth="yes"/>
      <point x="324.667" y="-37"/>
      <point x="389" y="-23.667"/>
      <point x="457" y="15" type="curve"/>
      <point x="434" y="164" type="line"/>
      <point x="354" y="118.667"/>
      <point x="302.333" y="111"/>
      <point x="269" y="111" type="curve" smooth="yes"/>
      <point x="239.667" y="111"/>
      <point x="218" y="126.667"/>
      <point x="218" y="152" type="curve" smooth="yes"/>
      <point x="218" y="188"/>
      <point x="281" y="234"/>
      <point x="369" y="262" type="curve"/>
      <point x="362" y="421" type="line"/>
      <point x="219" y="460" type="line"/>
      <point x="207" y="345" type="line"/>
      <point x="107" y="310"/>
      <point x="30" y="253"/>
      <point x="30" y="155" type="curve" smooth="yes"/>
      <point x="30" y="43.569"/>
      <point x="122.482" y="-37"/>
    </contour>
  </outline>
</glyph>
<glyph name="germandbls" format="2">
  <advance width="660"/>
  <unicode hex="00DF"/>
  <outline>
    <contour>
      <point x="388" y="0" type="line" smooth="yes"/>
      <point x="535" y="0"/>
      <point x="630" y="79"/>
      <point x="630" y="200" type="curve" smooth="yes"/>
      <point x="630" y="271"/>
      <point x="585" y="343"/>
      <point x="529" y="364" type="curve"/>
      <point x="580" y="399"/>
      <point x="596" y="439"/>
      <point x="596" y="496" type="curve" smooth="yes"/>
      <point x="596" y="626"/>
      <point x="480" y="702"/>
      <point x="346" y="702" type="curve" smooth="yes"/>
      <point x="151" y="702"/>
      <point x="60" y="588"/>
      <point x="60" y="452" type="curve" smooth="yes"/>
      <point x="60" y="0" type="line"/>
      <point x="242" y="0" type="line"/>
      <point x="242" y="457" type="line" smooth="yes"/>
      <point x="242" y="520"/>
      <point x="287" y="549"/>
      <point x="329" y="549" type="curve" smooth="yes"/>
      <point x="384" y="549"/>
      <point x="414" y="516"/>
      <point x="414" y="481" type="curve" smooth="yes"/>
      <point x="414" y="440"/>
      <point x="377" y="416"/>
      <point x="345" y="416" type="curve" smooth="yes"/>
      <point x="300" y="416" type="line"/>
      <point x="300" y="286" type="line"/>
      <point x="379" y="286" type="line" smooth="yes"/>
      <point x="411" y="286"/>
      <point x="445" y="264"/>
      <point x="445" y="214" type="curve" smooth="yes"/>
      <point x="445" y="173"/>
      <point x="412" y="149"/>
      <point x="371" y="149" type="curve" smooth="yes"/>
      <point x="295" y="149" type="line"/>
      <point x="295" y="0" type="line"/>
    </contour>
  </outline>
</glyph>
<glyph name="ae" format="2">
  <advance width="793"/>
  <unicode hex="00E6"/>
  <outline>
    <contour>
      <point x="570" y="-11" type="curve" smooth="yes"/>
      <point x="655" y="-11"/>
      <point x="734" y="13"/>
      <point x="772" y="41" type="curve"/>
      <point x="721" y="164" type="line"/>
      <point x="690" y="148"/>
      <point x="645" y="131"/>
      <point x="588" y="131" type="curve" smooth="yes"/>
      <point x="522" y="131"/>
      <point x="491" y="160"/>
      <point x="478" y="197" type="curve"/>
      <point x="773" y="197" type="line"/>
      <point x="773" y="233" type="line" smooth="yes"/>
      <point x="773" y="380"/>
      <point x="703" y="502"/>
      <point x="541" y="502" type="curve" smooth="yes"/>
      <point x="484" y="502"/>
      <point x="435" y="487"/>
      <point x="394" y="463" type="curve"/>
      <point x="364" y="487"/>
      <point x="319" y="502"/>
      <point x="256" y="502" type="curve" smooth="yes"/>
      <point x="177" y="502"/>
      <point x="97" y="478"/>
      <point x="48" y="456" type="curve"/>
      <point x="96" y="325" type="line"/>
      <point x="131" y="340"/>
      <point x="182" y="354"/>
      <point x="217" y="354" type="curve" smooth="yes"/>
      <point x="255" y="354"/>
      <point x="273" y="338"/>
      <point x="279" y="307" type="curve"/>
      <point x="280" y="298" type="line"/>
      <point x="210" y="298" type="line" smooth="yes"/>
      <point x="140" y="298"/>
      <point x="32" y="291"/>
      <point x="32" y="156" type="curve" smooth="yes"/>
      <point x="32" y="61"/>
      <point x="85" y="-11"/>
      <point x="214" y="-11" type="curve" smooth="yes"/>
      <point x="288" y="-11"/>
      <point x="335" y="13"/>
      <point x="370" y="48" type="curve"/>
      <point x="423" y="7"/>
      <point x="494" y="-11"/>
    </contour>
    <contour>
      <point x="599" y="287" type="curve"/>
      <point x="473" y="287" type="line"/>
      <point x="473" y="326"/>
      <point x="503" y="356"/>
      <point x="536" y="356" type="curve" smooth="yes"/>
      <point x="586" y="356"/>
      <point x="599" y="310"/>
    </contour>
    <contour>
      <point x="217" y="125" type="curve" smooth="yes"/>
      <point x="200" y="125"/>
      <point x="184" y="139"/>
      <point x="184" y="159" type="curve" smooth="yes"/>
      <point x="184" y="183"/>
      <point x="202" y="198"/>
      <point x="225" y="198" type="curve" smooth="yes"/>
      <point x="283" y="198" type="line"/>
      <point x="286" y="181"/>
      <point x="289" y="167"/>
      <point x="294" y="153" type="curve"/>
      <point x="275" y="138"/>
      <point x="251" y="125"/>
    </contour>
  </outline>
</glyph>
<glyph name="thorn" format="2">
  <advance width="579"/>
  <unicode hex="00FE"/>
  <outline>
    <contour>
      <point x="56" y="-219" type="line"/>
      <point x="238" y="-209" type="line"/>
      <point x="238" y="2" type="line"/>
      <point x="262" y="-6"/>
      <point x="285" y="-11"/>
      <point x="320" y="-11" type="curve" smooth="yes"/>
      <point x="447" y="-11"/>
      <point x="559" y="69"/>
      <point x="559" y="249" type="curve" smooth="yes"/>
      <point x="559" y="421"/>
      <point x="458" y="502"/>
      <point x="328" y="502" type="curve" smooth="yes"/>
      <point x="289" y="502"/>
      <point x="262" y="495"/>
      <point x="238" y="486" type="curve"/>
      <point x="238" y="706" type="line"/>
      <point x="56" y="695" type="line"/>
    </contour>
    <contour>
      <point x="290" y="129" type="curve" smooth="yes"/>
      <point x="272" y="129"/>
      <point x="254" y="134"/>
      <point x="238" y="142" type="curve"/>
      <point x="238" y="347" type="line"/>
      <point x="252" y="356"/>
      <point x="267" y="362"/>
      <point x="282" y="362" type="curve" smooth="yes"/>
      <point x="340" y="362"/>
      <point x="371" y="321"/>
      <point x="371" y="248" type="curve" smooth="yes"/>
      <point x="371" y="175"/>
      <point x="336" y="129"/>
    </contour>
  </outline>
</glyph>
<glyph name="Aogonek" format="2">
  <advance width="711"/>
  <unicode hex="0104"/>
  <outline>
    <contour>
      <point x="530" y="9" type="line"/>
      <point x="515" y="-21"/>
      <point x="506" y="-65.618"/>
      <point x="506" y="-89" type="curve" smooth="yes"/>
      <point x="506" y="-160.818"/>
      <point x="553.953" y="-236"/>
      <point x="654" y="-236" type="curve" smooth="yes"/>
      <point x="712.64" y="-236"/>
      <point x="781.321" y="-214.621"/>
      <point x="803" y="-189" type="curve"/>
      <point x="742" y="-87" type="line"/>
      <point x="723.333" y="-104.333"/>
      <point x="711.333" y="-107"/>
      <point x="698" y="-107" type="curve" smooth="yes"/>
      <point x="680.667" y="-107"/>
      <point x="669" y="-91"/>
      <point x="669" y="-75" type="curve" smooth="yes"/>
      <point x="669" y="-53.355"/>
      <point x="686.539" y="-10.281"/>
      <point x="701" y="9" type="curve"/>
    </contour>
    <contour>
      <point x="421" y="277" type="line"/>
      <point x="288" y="277" type="line"/>
      <point x="353" y="462" type="line"/>
    </contour>
    <contour>
      <point x="265" y="680" type="line"/>
      <point x="10" y="0" type="line"/>
      <point x="191" y="0" type="line"/>
      <point x="238" y="134" type="line"/>
      <point x="473" y="134" type="line"/>
      <point x="522" y="-10" type="line"/>
      <point x="701" y="8" type="line"/>
      <point x="447" y="680" type="line"/>
    </contour>
  </outline>
</glyph>
<glyph name="oe" format="2">
  <advance width="856"/>
  <unicode hex="0153"/>
  <outline>
    <contour>
      <point x="633" y="-11" type="curve" smooth="yes"/>
      <point x="718" y="-11"/>
      <point x="797" y="13"/>
      <point x="835" y="41" type="curve"/>
      <point x="784" y="164" type="line"/>
      <point x="753" y="148"/>
      <point x="708" y="131"/>
      <point x="651" y="131" type="curve" smooth="yes"/>
      <point x="585" y="131"/>
      <point x="554" y="160"/>
      <point x="541" y="197" type="curve"/>
      <point x="836" y="197" type="line"/>
      <point x="836" y="250" type="line" smooth="yes"/>
      <point x="836" y="380"/>
      <point x="766" y="502"/>
      <point x="604" y="502" type="curve" smooth="yes"/>
      <point x="547" y="502"/>
      <point x="492" y="488"/>
      <point x="447" y="456" type="curve"/>
      <point x="392" y="499"/>
      <point x="321" y="502"/>
      <point x="285" y="502" type="curve" smooth="yes"/>
      <point x="140" y="502"/>
      <point x="20" y="417"/>
      <point x="20" y="242" type="curve" smooth="yes"/>
      <point x="20" y="69"/>
      <point x="139" y="-11"/>
      <point x="285" y="-11" type="curve" smooth="yes"/>
      <point x="322" y="-11"/>
      <point x="392" y="-7"/>
      <point x="449" y="36" type="curve"/>
      <point x="501" y="4"/>
      <point x="566" y="-11"/>
    </contour>
    <contour>
      <point x="662" y="287" type="curve"/>
      <point x="536" y="287" type="line"/>
      <point x="536" y="326"/>
      <point x="566" y="356"/>
      <point x="599" y="356" type="curve" smooth="yes"/>
      <point x="649" y="356"/>
      <point x="662" y="310"/>
    </contour>
    <contour>
      <point x="303" y="137" type="curve" smooth="yes"/>
      <point x="257" y="137"/>
      <point x="208" y="171"/>
      <point x="208" y="242" type="curve" smooth="yes"/>
      <point x="208" y="316"/>
      <point x="257" y="354"/>
      <point x="303" y="354" type="curve" smooth="yes"/>
      <point x="327" y="354"/>
      <point x="343" y="351"/>
      <point x="361" y="345" type="curve"/>
      <point x="348" y="314"/>
      <point x="343" y="279"/>
      <point x="343" y="242" type="curve" smooth="yes"/>
      <point x="343" y="208"/>
      <point x="349" y="175"/>
      <point x="360" y="146" type="curve"/>
      <point x="341" y="140"/>
      <point x="324" y="137"/>
    </contour>
  </outline>
</glyph>
<glyph name="breve" format="2">
  <advance width="380"/>
  <unicode hex="02D8"/>
  <anchor x="190" y="485" name="_top"/>
  <outline>
    <contour>
      <point x="190" y="588" type="curve" smooth="yes"/>
      <point x="302.215" y="590.04"/>
      <point x="370" y="665.402"/>
      <point x="370" y="777" type="curve"/>
      <point x="241" y="777" type="line"/>
      <point x="241" y="743.667"/>
      <point x="222" y="721"/>
      <point x="190" y="721" type="curve" smooth="yes"/>
      <point x="158" y="721"/>
      <point x="139" y="743.667"/>
      <point x="139" y="777" type="curve"/>
      <point x="10" y="777" type="line"/>
      <point x="10" y="664.804"/>
      <point x="78.692" y="590.061"/>
    </contour>
  </outline>
</glyph>
<glyph name="dotaccent" format="2">
  <advance width="202"/>
  <unicode hex="02D9"/>
  <anchor x="102" y="485" name="_top"/>
  <outline>
    <contour>
      <point x="102" y="594" type="curve" smooth="yes"/>
      <point x="155.333" y="594"/>
      <point x="192" y="632.667"/>
      <point x="192" y="686" type="curve" smooth="yes"/>
      <point x="192" y="736.667"/>
      <point x="155.333" y="778"/>
      <point x="102" y="778" type="curve" smooth="yes"/>
      <point x="51.333" y="778"/>
      <point x="10" y="736.667"/>
      <point x="10" y="686" type="curve" smooth="yes"/>
      <point x="10" y="632.667"/>
      <point x="51.333" y="594"/>
    </contour>
  </outline>
</glyph>
<glyph name="ogonek" format="2">
  <advance width="291"/>
  <unicode hex="02DB"/>
  <outline>
    <contour>
      <point x="35" y="5" type="line"/>
      <point x="20.009" y="-24.982"/>
      <point x="10" y="-69.618"/>
      <point x="10" y="-93" type="curve" smooth="yes"/>
      <point x="10" y="-164.818"/>
      <point x="57.953" y="-240"/>
      <point x="158" y="-240" type="curve" smooth="yes"/>
      <point x="211.333" y="-240"/>
      <point x="258.333" y="-219.667"/>
      <point x="281" y="-193" type="curve"/>
      <point x="220" y="-91" type="line"/>
      <point x="201.333" y="-108.333"/>
      <point x="189.333" y="-111"/>
      <point x="176" y="-111" type="curve" smooth="yes"/>
      <point x="158.667" y="-111"/>
      <point x="147" y="-95"/>
      <point x="147" y="-79" type="curve" smooth="yes"/>
      <point x="147" y="-55.595"/>
      <point x="165.222" y="-13.37"/>
      <point x="179" y="5" type="curve"/>
    </contour>
  </outline>
</glyph>
<glyph name="tilde" format="2">
  <advance width="391"/>
  <unicode hex="02DC"/>
  <anchor x="195" y="485" name="_top"/>
  <outline>
    <contour>
      <point x="259" y="755" type="line"/>
      <point x="259" y="737.667"/>
      <point x="247.667" y="726"/>
      <point x="237" y="726" type="curve" smooth="yes"/>
      <point x="219.667" y="726"/>
      <point x="206" y="733.333"/>
      <point x="194" y="740" type="curve" smooth="yes"/>
      <point x="178" y="749.333"/>
      <point x="160.667" y="760"/>
      <point x="134" y="760" type="curve" smooth="yes"/>
      <point x="48" y="760"/>
      <point x="10" y="688"/>
      <point x="10" y="600" type="curve"/>
      <point x="136" y="600" type="line"/>
      <point x="136" y="612"/>
      <point x="148.333" y="629"/>
      <point x="163" y="629" type="curve" smooth="yes"/>
      <point x="181.667" y="629"/>
      <point x="193.333" y="620.333"/>
      <point x="208" y="611" type="curve" smooth="yes"/>
      <point x="221.333" y="603"/>
      <point x="238.333" y="595"/>
      <point x="261" y="595" type="curve" smooth="yes"/>
      <point x="327.717" y="595"/>
      <point x="381" y="643.176"/>
      <point x="381" y="755" type="curve"/>
    </contour>
  </outline>
</glyph>
<glyph name="gravecomb" format="2">
  <unicode hex="0300"/>
  <anchor x="198" y="485" name="_top"/>
  <outline>
    <contour>
      <point x="124" y="588" type="line"/>
      <point x="256" y="610" type="line"/>
      <point x="190" y="787" type="line"/>
      <point x="10" y="787" type="line"/>
    </contour>
  </outline>
</glyph>
<glyph name="acutecomb" format="2">
  <unicode hex="0301"/>
  <anchor x="83" y="485" name="_top"/>
  <outline>
    <contour>
      <point x="142" y="588" type="line"/>
      <point x="256" y="787" type="line"/>
      <point x="76" y="787" type="line"/>
      <point x="10" y="610" type="line"/>
    </contour>
  </outline>
</glyph>
<glyph name="macroncomb" format="2">
  <unicode hex="0304"/>
  <outline>
    <contour>
      <point x="10" y="613" type="line"/>
      <point x="300" y="613" type="line"/>
      <point x="290" y="756" type="line"/>
      <point x="10" y="756" type="line"/>
    </contour>
  </outline>
</glyph>
<glyph name="dieresiscomb" format="2">
  <unicode hex="0308"/>
  <anchor x="199" y="485" name="_top"/>
  <outline>
    <contour>
      <point x="93" y="603" type="curve" smooth="yes"/>
      <point x="141" y="603"/>
      <point x="177" y="639.333"/>
      <point x="177" y="686" type="curve" smooth="yes"/>
      <point x="177" y="731.333"/>
      <point x="141" y="769"/>
      <point x="93" y="769" type="curve" smooth="yes"/>
      <point x="49" y="769"/>
      <point x="10" y="731.333"/>
      <point x="10" y="686" type="curve" smooth="yes"/>
      <point x="10" y="639.333"/>
      <point x="49" y="603"/>
    </contour>
    <contour>
      <point x="304" y="603" type="curve" smooth="yes"/>
      <point x="352" y="603"/>
      <point x="388" y="639.333"/>
      <point x="388" y="686" type="curve" smooth="yes"/>
      <point x="388" y="731.333"/>
      <point x="352" y="769"/>
      <point x="304" y="769" type="curve" smooth="yes"/>
      <point x="260" y="769"/>
      <point x="221" y="731.333"/>
      <point x="221" y="686" type="curve" smooth="yes"/>
      <point x="221" y="639.333"/>
      <point x="260" y="603"/>
    </contour>
  </outline>
</glyph>
<glyph name="hungarumlautcomb" format="2">
  <unicode hex="030B"/>
  <anchor x="226" y="680" name="_top"/>
  <outline>
    <contour>
      <point x="142" y="733" type="line"/>
      <point x="256" y="932" type="line"/>
      <point x="76" y="932" type="line"/>
      <point x="10" y="755" type="line"/>
    </contour>
    <contour>
      <point x="389" y="733" type="line"/>
      <point x="503" y="932" type="line"/>
      <point x="323" y="932" type="line"/>
      <point x="257" y="755" type="line"/>
    </contour>
  </outline>
</glyph>
<glyph name="shevacomb-hebr" format="2">
  <unicode hex="05B0"/>
  <anchor x="0" y="0" name="Anchor_1"/>
  <anchor x="60" y="0" name="Bottom-liga"/>
  <anchor x="64" y="0" name="bottom-hebr"/>
  <outline>
    <contour>
      <point x="0" y="-79" type="curve" smooth="yes"/>
      <point x="14.667" y="-79"/>
      <point x="27" y="-91.333"/>
      <point x="27" y="-106" type="curve" smooth="yes"/>
      <point x="27" y="-122"/>
      <point x="14.667" y="-134"/>
      <point x="0" y="-134" type="curve" smooth="yes"/>
      <point x="-16" y="-134"/>
      <point x="-28" y="-122"/>
      <point x="-28" y="-106" type="curve" smooth="yes"/>
      <point x="-28" y="-91.333"/>
      <point x="-16" y="-79"/>
    </contour>
    <contour>
      <point x="0" y="-181" type="curve" smooth="yes"/>
      <point x="14.667" y="-181"/>
      <point x="27" y="-193.333"/>
      <point x="27" y="-208" type="curve" smooth="yes"/>
      <point x="27" y="-224"/>
      <point x="14.667" y="-236"/>
      <point x="0" y="-236" type="curve" smooth="yes"/>
      <point x="-16" y="-236"/>
      <point x="-28" y="-224"/>
      <point x="-28" y="-208" type="curve" smooth="yes"/>
      <point x="-28" y="-193.333"/>
      <point x="-16" y="-181"/>
    </contour>
  </outline>
</glyph>
<glyph name="hatafsegolcomb-hebr" format="2">
  <unicode hex="05B1"/>
  <anchor x="0" y="0" name="Anchor_1"/>
  <anchor x="177" y="0" name="Bottom-liga"/>
  <anchor x="168" y="0" name="bottom-hebr"/>
  <outline>
    <contour>
      <point x="-104" y="-79" type="curve" smooth="yes"/>
      <point x="-89.333" y="-79"/>
      <point x="-77" y="-91.333"/>
      <point x="-77" y="-106" type="curve" smooth="yes"/>
      <point x="-77" y="-122"/>
      <point x="-89.333" y="-134"/>
      <point x="-104" y="-134" type="curve" smooth="yes"/>
      <point x="-120" y="-134"/>
      <point x="-132" y="-122"/>
      <point x="-132" y="-106" type="curve" smooth="yes"/>
      <point x="-132" y="-91.333"/>
      <point x="-120" y="-79"/>
    </contour>
    <contour>
      <point x="-53" y="-181" type="curve" smooth="yes"/>
      <point x="-38.333" y="-181"/>
      <point x="-26" y="-193.333"/>
      <point x="-26" y="-208" type="curve" smooth="yes"/>
      <point x="-26" y="-224"/>
      <point x="-38.333" y="-236"/>
      <point x="-53" y="-236" type="curve" smooth="yes"/>
      <point x="-69" y="-236"/>
      <point x="-81" y="-224"/>
      <point x="-81" y="-208" type="curve" smooth="yes"/>
      <point x="-81" y="-193.333"/>
      <point x="-69" y="-181"/>
    </contour>
    <contour>
      <point x="105" y="-79" type="curve" smooth="yes"/>
      <point x="119.667" y="-79"/>
      <point x="132" y="-91.333"/>
      <point x="132" y="-106" type="curve" smooth="yes"/>
      <point x="132" y="-122"/>
      <point x="119.667" y="-134"/>
      <point x="105" y="-134" type="curve" smooth="yes"/>
      <point x="89" y="-134"/>
      <point x="77" y="-122"/>
      <point x="77" y="-106" type="curve" smooth="yes"/>
      <point x="77" y="-91.333"/>
      <point x="89" y="-79"/>
    </contour>
    <contour>
      <point x="105" y="-181" type="curve" smooth="yes"/>
      <point x="119.667" y="-181"/>
      <point x="132" y="-193.333"/>
      <point x="132" y="-208" type="curve" smooth="yes"/>
      <point x="132" y="-224"/>
      <point x="119.667" y="-236"/>
      <point x="105" y="-236" type="curve" smooth="yes"/>
      <point x="89" y="-236"/>
      <point x="77" y="-224"/>
      <point x="77" y="-208" type="curve" smooth="yes"/>
      <point x="77" y="-193.333"/>
      <point x="89" y="-181"/>
    </contour>
    <contour>
      <point x="-1" y="-79" type="curve" smooth="yes"/>
      <point x="13.667" y="-79"/>
      <point x="26" y="-91.333"/>
      <point x="26" y="-106" type="curve" smooth="yes"/>
      <point x="26" y="-122"/>
      <point x="13.667" y="-134"/>
      <point x="-1" y="-134" type="curve" smooth="yes"/>
      <point x="-17" y="-134"/>
      <point x="-29" y="-122"/>
      <point x="-29" y="-106" type="curve" smooth="yes"/>
      <point x="-29" y="-91.333"/>
      <point x="-17" y="-79"/>
    </contour>
  </outline>
</glyph>
<glyph name="hatafpatahcomb-hebr" format="2">
  <unicode hex="05B2"/>
  <anchor x="0" y="0" name="Anchor_1"/>
  <anchor x="160" y="0" name="Bottom-liga"/>
  <anchor x="162" y="0" name="bottom-hebr"/>
  <outline>
    <contour>
      <point x="25" y="-123" type="line"/>
      <point x="-127" y="-123" type="line"/>
      <point x="-127" y="-83" type="line"/>
      <point x="25" y="-83" type="line"/>
    </contour>
    <contour>
      <point x="99" y="-79" type="curve" smooth="yes"/>
      <point x="113.667" y="-79"/>
      <point x="127" y="-91.333"/>
      <point x="127" y="-106" type="curve" smooth="yes"/>
      <point x="127" y="-122"/>
      <point x="113.667" y="-134"/>
      <point x="99" y="-134" type="curve" smooth="yes"/>
      <point x="84.333" y="-134"/>
      <point x="71" y="-122"/>
      <point x="71" y="-106" type="curve" smooth="yes"/>
      <point x="71" y="-91.333"/>
      <point x="84.333" y="-79"/>
    </contour>
    <contour>
      <point x="99" y="-181" type="curve" smooth="yes"/>
      <point x="113.667" y="-181"/>
      <point x="127" y="-193.333"/>
      <point x="127" y="-208" type="curve" smooth="yes"/>
      <point x="127" y="-224"/>
      <point x="113.667" y="-236"/>
      <point x="99" y="-236" type="curve" smooth="yes"/>
      <point x="84.333" y="-236"/>
      <point x="71" y="-224"/>
      <point x="71" y="-208" type="curve" smooth="yes"/>
      <point x="71" y="-193.333"/>
      <point x="84.333" y="-181"/>
    </contour>
  </outline>
</glyph>
<glyph name="hatafqamatscomb-hebr" format="2">
  <unicode hex="05B3"/>
  <anchor x="0" y="0" name="Anchor_1"/>
  <anchor x="160" y="0" name="Bottom-liga"/>
  <anchor x="160" y="0" name="bottom-hebr"/>
  <outline>
    <contour>
      <point x="-28" y="-231" type="curve"/>
      <point x="-74" y="-231" type="line"/>
      <point x="-71.957" y="-205.456"/>
      <point x="-70.706" y="-187.681"/>
      <point x="-67.5" y="-175.5" type="curve" smooth="yes"/>
      <point x="-65.833" y="-169.167"/>
      <point x="-62.667" y="-151.667"/>
      <point x="-58" y="-123" type="curve"/>
      <point x="-128" y="-123" type="line"/>
      <point x="-128" y="-84" type="line"/>
      <point x="26" y="-84" type="line"/>
      <point x="26" y="-123" type="line"/>
      <point x="-44" y="-123" type="line"/>
      <point x="-38.982" y="-153.827"/>
      <point x="-32.442" y="-180.356"/>
      <point x="-31" y="-195.5" type="curve" smooth="yes"/>
      <point x="-30.333" y="-202.5"/>
      <point x="-29.333" y="-214.333"/>
    </contour>
    <contour>
      <point x="101" y="-79" type="curve" smooth="yes"/>
      <point x="115.667" y="-79"/>
      <point x="129" y="-91.333"/>
      <point x="129" y="-106" type="curve" smooth="yes"/>
      <point x="129" y="-122"/>
      <point x="115.667" y="-134"/>
      <point x="101" y="-134" type="curve" smooth="yes"/>
      <point x="86.333" y="-134"/>
      <point x="73" y="-122"/>
      <point x="73" y="-106" type="curve" smooth="yes"/>
      <point x="73" y="-91.333"/>
      <point x="86.333" y="-79"/>
    </contour>
    <contour>
      <point x="101" y="-181" type="curve" smooth="yes"/>
      <point x="115.667" y="-181"/>
      <point x="129" y="-193.333"/>
      <point x="129" y="-208" type="curve" smooth="yes"/>
      <point x="129" y="-224"/>
      <point x="115.667" y="-236"/>
      <point x="101" y="-236" type="curve" smooth="yes"/>
      <point x="86.333" y="-236"/>
      <point x="73" y="-224"/>
      <point x="73" y="-208" type="curve" smooth="yes"/>
      <point x="73" y="-193.333"/>
      <point x="86.333" y="-181"/>
    </contour>
  </outline>
</glyph>
<glyph name="hiriqcomb-hebr" format="2">
  <unicode hex="05B4"/>
  <anchor x="0" y="0" name="Anchor_1"/>
  <anchor x="64" y="0" name="Bottom-liga"/>
  <anchor x="64" y="0" name="bottom-hebr"/>
  <outline>
    <contour>
      <point x="0" y="-79" type="curve" smooth="yes"/>
      <point x="14.667" y="-79"/>
      <point x="27" y="-91.333"/>
      <point x="27" y="-106" type="curve" smooth="yes"/>
      <point x="27" y="-122"/>
      <point x="14.667" y="-134"/>
      <point x="0" y="-134" type="curve" smooth="yes"/>
      <point x="-16" y="-134"/>
      <point x="-28" y="-122"/>
      <point x="-28" y="-106" type="curve" smooth="yes"/>
      <point x="-28" y="-91.333"/>
      <point x="-16" y="-79"/>
    </contour>
  </outline>
</glyph>
<glyph name="tserecomb-hebr" format="2">
  <unicode hex="05B5"/>
  <anchor x="0" y="0" name="Anchor_1"/>
  <anchor x="112" y="0" name="Bottom-liga"/>
  <anchor x="118" y="0" name="bottom-hebr"/>
  <outline>
    <contour>
      <point x="-51" y="-79" type="curve" smooth="yes"/>
      <point x="-36.333" y="-79"/>
      <point x="-24" y="-91.333"/>
      <point x="-24" y="-106" type="curve" smooth="yes"/>
      <point x="-24" y="-122"/>
      <point x="-36.333" y="-134"/>
      <point x="-51" y="-134" type="curve" smooth="yes"/>
      <point x="-67" y="-134"/>
      <point x="-79" y="-122"/>
      <point x="-79" y="-106" type="curve" smooth="yes"/>
      <point x="-79" y="-91.333"/>
      <point x="-67" y="-79"/>
    </contour>
    <contour>
      <point x="52" y="-79" type="curve" smooth="yes"/>
      <point x="66.667" y="-79"/>
      <point x="79" y="-91.333"/>
      <point x="79" y="-106" type="curve" smooth="yes"/>
      <point x="79" y="-122"/>
      <point x="66.667" y="-134"/>
      <point x="52" y="-134" type="curve" smooth="yes"/>
      <point x="36" y="-134"/>
      <point x="24" y="-122"/>
      <point x="24" y="-106" type="curve" smooth="yes"/>
      <point x="24" y="-91.333"/>
      <point x="36" y="-79"/>
    </contour>
  </outline>
</glyph>
<glyph name="patahcomb-hebr" format="2">
  <unicode hex="05B7"/>
  <anchor x="0" y="0" name="Anchor_1"/>
  <anchor x="110" y="0" name="Bottom-liga"/>
  <anchor x="113" y="0" name="bottom-hebr"/>
  <outline>
    <contour>
      <point x="76" y="-123" type="line"/>
      <point x="-76" y="-123" type="line"/>
      <point x="-76" y="-83" type="line"/>
      <point x="76" y="-83" type="line"/>
    </contour>
  </outline>
</glyph>
<glyph name="qamatscomb-hebr" format="2">
  <unicode hex="05B8"/>
  <anchor x="0" y="0" name="Anchor_1"/>
  <anchor x="112" y="0" name="Bottom-liga"/>
  <anchor x="113" y="0" name="bottom-hebr"/>
  <outline>
    <contour>
      <point x="7" y="-123" type="line"/>
      <point x="19" y="-185" type="line"/>
      <point x="22" y="-231" type="line"/>
      <point x="-22" y="-231" type="line"/>
      <point x="-19" y="-185" type="line"/>
      <point x="-7" y="-123" type="line"/>
      <point x="-77" y="-123" type="line"/>
      <point x="-77" y="-84" type="line"/>
      <point x="77" y="-84" type="line"/>
      <point x="77" y="-123" type="line"/>
    </contour>
  </outline>
</glyph>
<glyph name="holamcomb-hebr" format="2">
  <unicode hex="05B9"/>
  <anchor x="0" y="0" name="Anchor_1"/>
  <anchor x="0" y="0" name="holam"/>
  <anchor x="64" y="379" name="topleft- liga"/>
  <anchor x="64" y="379" name="topleft-hebr"/>
  <outline>
    <contour>
      <point x="0" y="692" type="curve" smooth="yes"/>
      <point x="14.667" y="692"/>
      <point x="27" y="679.667"/>
      <point x="27" y="665" type="curve" smooth="yes"/>
      <point x="27" y="649"/>
      <point x="14.667" y="637"/>
      <point x="0" y="637" type="curve" smooth="yes"/>
      <point x="-16" y="637"/>
      <point x="-28" y="649"/>
      <point x="-28" y="665" type="curve" smooth="yes"/>
      <point x="-28" y="679.667"/>
      <point x="-16" y="692"/>
    </contour>
  </outline>
</glyph>
<glyph name="qubutscomb-hebr" format="2">
  <unicode hex="05BB"/>
  <anchor x="0" y="0" name="Anchor_1"/>
  <anchor x="112" y="0" name="Bottom-liga"/>
  <anchor x="118" y="0" name="bottom-hebr"/>
  <outline>
    <contour>
      <point x="-2" y="-77" type="curve" smooth="yes"/>
      <point x="12.667" y="-77"/>
      <point x="25" y="-89.333"/>
      <point x="25" y="-104" type="curve" smooth="yes"/>
      <point x="25" y="-120"/>
      <point x="12.667" y="-132"/>
      <point x="-2" y="-132" type="curve" smooth="yes"/>
      <point x="-18" y="-132"/>
      <point x="-30" y="-120"/>
      <point x="-30" y="-104" type="curve" smooth="yes"/>
      <point x="-30" y="-89.333"/>
      <point x="-18" y="-77"/>
    </contour>
    <contour>
      <point x="68" y="-146" type="curve" smooth="yes"/>
      <point x="82.667" y="-146"/>
      <point x="95" y="-158.333"/>
      <point x="95" y="-173" type="curve" smooth="yes"/>
      <point x="95" y="-189"/>
      <point x="82.667" y="-201"/>
      <point x="68" y="-201" type="curve" smooth="yes"/>
      <point x="52" y="-201"/>
      <point x="40" y="-189"/>
      <point x="40" y="-173" type="curve" smooth="yes"/>
      <point x="40" y="-158.333"/>
      <point x="52" y="-146"/>
    </contour>
    <contour>
      <point x="138" y="-216" type="curve" smooth="yes"/>
      <point x="152.667" y="-216"/>
      <point x="165" y="-228.333"/>
      <point x="165" y="-243" type="curve" smooth="yes"/>
      <point x="165" y="-259"/>
      <point x="152.667" y="-271"/>
      <point x="138" y="-271" type="curve" smooth="yes"/>
      <point x="122" y="-271"/>
      <point x="110" y="-259"/>
      <point x="110" y="-243" type="curve" smooth="yes"/>
      <point x="110" y="-228.333"/>
      <point x="122" y="-216"/>
    </contour>
  </outline>
</glyph>
<glyph name="dageshormapiqcomb-hebr" format="2">
  <unicode hex="05BC"/>
  <anchor x="0" y="0" name="Anchor_1"/>
  <anchor x="0" y="0" name="Bottom-liga"/>
  <anchor x="0" y="0" name="center - liga"/>
  <anchor x="64" y="243" name="center-hebr"/>
  <anchor x="0" y="0" name="dagesh"/>
  <anchor x="0" y="0" name="top - liga"/>
  <outline>
    <contour>
      <point x="1" y="318" type="curve" smooth="yes"/>
      <point x="15.667" y="318"/>
      <point x="28" y="305.667"/>
      <point x="28" y="291" type="curve" smooth="yes"/>
      <point x="28" y="275"/>
      <point x="15.667" y="263"/>
      <point x="1" y="263" type="curve" smooth="yes"/>
      <point x="-15" y="263"/>
      <point x="-27" y="275"/>
      <point x="-27" y="291" type="curve" smooth="yes"/>
      <point x="-27" y="305.667"/>
      <point x="-15" y="318"/>
    </contour>
  </outline>
</glyph>
<glyph name="maqaf-hebr" format="2">
  <advance width="262"/>
  <unicode hex="05BE"/>
  <anchor x="0" y="0" name="Anchor_1"/>
  <outline>
    <contour>
      <point x="219" y="446" type="line"/>
      <point x="29" y="446" type="line"/>
      <point x="47" y="589" type="line"/>
      <point x="239" y="589" type="line"/>
    </contour>
  </outline>
</glyph>
<glyph name="punctuationpaseq-hebr" format="2">
  <advance width="249"/>
  <unicode hex="05C0"/>
  <outline>
    <contour>
      <point x="100" y="710" type="line"/>
      <point x="100" y="0" type="line"/>
      <point x="149" y="-4" type="line"/>
      <point x="149" y="706" type="line"/>
    </contour>
  </outline>
</glyph>
<glyph name="alef-hebr" format="2">
  <advance width="657"/>
  <unicode hex="05D0"/>
  <anchor x="329" y="0" name="Anchor_1"/>
  <anchor x="266" y="-159" name="dagesh"/>
  <outline>
    <contour>
      <point x="448" y="255" type="line"/>
      <point x="335" y="373" type="line"/>
      <point x="517" y="615" type="line"/>
      <point x="637" y="498" type="line"/>
    </contour>
    <contour>
      <point x="629" y="0" type="line"/>
      <point x="424" y="0" type="line"/>
      <point x="40" y="555" type="line"/>
      <point x="200" y="616" type="line"/>
    </contour>
    <contour>
      <point x="205" y="0" type="line"/>
      <point x="25" y="0" type="line"/>
      <point x="25" y="191" type="line" smooth="yes"/>
      <point x="25" y="319"/>
      <point x="97" y="395"/>
      <point x="208" y="449" type="curve"/>
      <point x="276" y="345" type="line"/>
      <point x="226" y="306"/>
      <point x="205" y="285"/>
      <point x="205" y="227" type="curve" smooth="yes"/>
    </contour>
  </outline>
</glyph>
<glyph name="bet-hebr" format="2">
  <advance width="516"/>
  <unicode hex="05D1"/>
  <anchor x="268" y="0" name="Anchor_1"/>
  <anchor x="141" y="0" name="dagesh"/>
  <outline>
    <contour>
      <point x="495" y="0" type="line"/>
      <point x="25" y="0" type="line"/>
      <point x="25" y="143" type="line"/>
      <point x="260" y="143" type="line"/>
      <point x="260" y="447" type="line"/>
      <point x="25" y="447" type="line"/>
      <point x="45" y="590" type="line"/>
      <point x="442" y="590" type="line"/>
      <point x="442" y="143" type="line"/>
      <point x="500" y="143" type="line"/>
    </contour>
  </outline>
</glyph>
<glyph name="gimel-hebr" format="2">
  <advance width="424"/>
  <unicode hex="05D2"/>
  <anchor x="198" y="0" name="Anchor_1"/>
  <anchor x="100" y="36" name="dagesh"/>
  <outline>
    <contour>
      <point x="426" y="3" type="line"/>
      <point x="250" y="-10" type="line"/>
      <point x="238" y="52" type="line" smooth="yes"/>
      <point x="228.667" y="94"/>
      <point x="223" y="127"/>
      <point x="221" y="151" type="curve"/>
      <point x="194.924" y="51.299"/>
      <point x="126.924" y="-18.573"/>
      <point x="6" y="-16" type="curve"/>
      <point x="11" y="150" type="line"/>
      <point x="66" y="147"/>
      <point x="194" y="189"/>
      <point x="194" y="354" type="curve" smooth="yes"/>
      <point x="194" y="447" type="line"/>
      <point x="26" y="447" type="line"/>
      <point x="46" y="590" type="line"/>
      <point x="376" y="590" type="line"/>
      <point x="376" y="295" type="line" smooth="yes"/>
      <point x="376" y="226.333"/>
      <point x="386.333" y="154.333"/>
      <point x="407" y="79" type="curve" smooth="yes"/>
    </contour>
  </outline>
</glyph>
<glyph name="dalet-hebr" format="2">
  <advance width="508"/>
  <unicode hex="05D3"/>
  <anchor x="313" y="0" name="Anchor_1"/>
  <anchor x="121" y="0" name="dagesh"/>
  <outline>
    <contour>
      <point x="411" y="0" type="line"/>
      <point x="229" y="0" type="line"/>
      <point x="229" y="447" type="line"/>
      <point x="20" y="447" type="line"/>
      <point x="40" y="590" type="line"/>
      <point x="475" y="590" type="line"/>
      <point x="470" y="447" type="line"/>
      <point x="411" y="447" type="line"/>
    </contour>
  </outline>
</glyph>
<glyph name="he-hebr" format="2">
  <advance width="596"/>
  <unicode hex="05D4"/>
  <anchor x="304" y="0" name="Anchor_1"/>
  <anchor x="303" y="-24" name="dagesh"/>
  <anchor x="19" y="0" name="holam"/>
  <outline>
    <contour>
      <point x="551" y="0" type="line"/>
      <point x="369" y="0" type="line"/>
      <point x="369" y="319" type="line" smooth="yes"/>
      <point x="369" y="402"/>
      <point x="346" y="441"/>
      <point x="244" y="444" type="curve" smooth="yes"/>
      <point x="172" y="446"/>
      <point x="100" y="429"/>
      <point x="41" y="414" type="curve"/>
      <point x="15" y="563" type="line"/>
      <point x="52" y="574"/>
      <point x="144" y="595"/>
      <point x="253" y="595" type="curve" smooth="yes"/>
      <point x="474" y="595"/>
      <point x="551" y="497"/>
      <point x="551" y="391" type="curve" smooth="yes"/>
    </contour>
    <contour>
      <point x="233" y="0" type="line"/>
      <point x="51" y="0" type="line"/>
      <point x="51" y="316" type="line"/>
      <point x="233" y="359" type="line"/>
    </contour>
  </outline>
</glyph>
<glyph name="vav-hebr" format="2">
  <advance width="355"/>
  <unicode hex="05D5"/>
  <anchor x="218" y="0" name="Anchor_1"/>
  <anchor x="65" y="-24" name="dagesh"/>
  <outline>
    <contour>
      <point x="305" y="0" type="line"/>
      <point x="123" y="0" type="line"/>
      <point x="123" y="447" type="line"/>
      <point x="20" y="447" type="line"/>
      <point x="40" y="590" type="line"/>
      <point x="305" y="590" type="line"/>
    </contour>
  </outline>
</glyph>
<glyph name="zayin-hebr" format="2">
  <advance width="386"/>
  <unicode hex="05D6"/>
  <anchor x="275" y="0" name="Anchor_1"/>
  <anchor x="65" y="-27" name="dagesh"/>
  <outline>
    <contour>
      <point x="356" y="11" type="line"/>
      <point x="175" y="-14" type="line"/>
      <point x="100" y="447" type="line"/>
      <point x="20" y="447" type="line"/>
      <point x="40" y="590" type="line"/>
      <point x="366" y="590" type="line"/>
      <point x="345" y="447" type="line"/>
      <point x="283" y="447" type="line"/>
    </contour>
  </outline>
</glyph>
<glyph name="het-hebr" format="2">
  <advance width="626"/>
  <unicode hex="05D7"/>
  <anchor x="320" y="0" name="Anchor_1"/>
  <anchor x="308" y="-21" name="dagesh"/>
  <outline>
    <contour>
      <point x="581" y="0" type="line"/>
      <point x="399" y="0" type="line"/>
      <point x="399" y="349" type="line" smooth="yes"/>
      <point x="399" y="416"/>
      <point x="376" y="444"/>
      <point x="298" y="444" type="curve" smooth="yes"/>
      <point x="264" y="444"/>
      <point x="242" y="443"/>
      <point x="227" y="442" type="curve"/>
      <point x="227" y="0" type="line"/>
      <point x="45" y="0" type="line"/>
      <point x="45" y="574" type="line"/>
      <point x="90" y="585"/>
      <point x="184" y="598"/>
      <point x="306" y="595" type="curve" smooth="yes"/>
      <point x="497" y="590"/>
      <point x="581" y="506"/>
      <point x="581" y="385" type="curve" smooth="yes"/>
    </contour>
  </outline>
</glyph>
<glyph name="tet-hebr" format="2">
  <advance width="666"/>
  <unicode hex="05D8"/>
  <anchor x="312" y="0" name="Anchor_1"/>
  <anchor x="337" y="-9" name="dagesh"/>
  <outline>
    <contour>
      <point x="337" y="-11" type="curve" smooth="yes"/>
      <point x="199" y="-11"/>
      <point x="45" y="54"/>
      <point x="45" y="290" type="curve" smooth="yes"/>
      <point x="45" y="590" type="line"/>
      <point x="227" y="590" type="line"/>
      <point x="227" y="265" type="line" smooth="yes"/>
      <point x="227" y="180"/>
      <point x="272" y="150"/>
      <point x="337" y="150" type="curve" smooth="yes"/>
      <point x="416" y="150"/>
      <point x="439" y="197"/>
      <point x="439" y="265" type="curve" smooth="yes"/>
      <point x="439" y="418" type="line"/>
      <point x="421" y="417"/>
      <point x="390" y="381"/>
      <point x="362" y="354" type="curve"/>
      <point x="275" y="460" type="line"/>
      <point x="330" y="535"/>
      <point x="410" y="590"/>
      <point x="512" y="590" type="curve" smooth="yes"/>
      <point x="621" y="590" type="line"/>
      <point x="621" y="290" type="line" smooth="yes"/>
      <point x="621" y="54"/>
      <point x="480" y="-11"/>
    </contour>
  </outline>
</glyph>
<glyph name="yod-hebr" format="2">
  <advance width="355"/>
  <unicode hex="05D9"/>
  <anchor x="210" y="0" name="Anchor_1"/>
  <anchor x="54" y="51" name="dagesh"/>
  <outline>
    <contour>
      <point x="305" y="270" type="line"/>
      <point x="123" y="230" type="line"/>
      <point x="123" y="447" type="line"/>
      <point x="20" y="447" type="line"/>
      <point x="40" y="590" type="line"/>
      <point x="305" y="590" type="line"/>
    </contour>
  </outline>
</glyph>
<glyph name="finalkaf-hebr" format="2">
  <advance width="547"/>
  <unicode hex="05DA"/>
  <anchor x="204" y="351" name="Anchor_1"/>
  <anchor x="186" y="-42" name="dagesh"/>
  <outline>
    <contour>
      <point x="502" y="-172" type="line"/>
      <point x="320" y="-208" type="line"/>
      <point x="320" y="329" type="line" smooth="yes"/>
      <point x="320" y="402"/>
      <point x="293" y="444"/>
      <point x="214" y="444" type="curve" smooth="yes"/>
      <point x="165" y="444"/>
      <point x="110" y="431"/>
      <point x="58" y="414" type="curve"/>
      <point x="35" y="563" type="line"/>
      <point x="70" y="574"/>
      <point x="144" y="595"/>
      <point x="234" y="595" type="curve" smooth="yes"/>
      <point x="425" y="595"/>
      <point x="502" y="497"/>
      <point x="502" y="391" type="curve" smooth="yes"/>
    </contour>
  </outline>
</glyph>
<glyph name="kaf-hebr" format="2">
  <advance width="507"/>
  <unicode hex="05DB"/>
  <anchor x="261" y="0" name="Anchor_1"/>
  <anchor x="153" y="0" name="dagesh"/>
  <outline>
    <contour>
      <point x="214" y="-13" type="curve" smooth="yes"/>
      <point x="121" y="-13"/>
      <point x="63" y="0"/>
      <point x="15" y="14" type="curve"/>
      <point x="38" y="162" type="line"/>
      <point x="93" y="149"/>
      <point x="130" y="148"/>
      <point x="171" y="148" type="curve" smooth="yes"/>
      <point x="261" y="148"/>
      <point x="300" y="177"/>
      <point x="300" y="291" type="curve" smooth="yes"/>
      <point x="300" y="401"/>
      <point x="282" y="445"/>
      <point x="177" y="445" type="curve" smooth="yes"/>
      <point x="121" y="445"/>
      <point x="81" y="438"/>
      <point x="37" y="430" type="curve"/>
      <point x="16" y="575" type="line"/>
      <point x="53" y="584"/>
      <point x="117" y="596"/>
      <point x="190" y="596" type="curve" smooth="yes"/>
      <point x="373" y="596"/>
      <point x="482" y="525"/>
      <point x="482" y="291" type="curve" smooth="yes"/>
      <point x="482" y="57"/>
      <point x="374" y="-13"/>
    </contour>
  </outline>
</glyph>
<glyph name="lamed-hebr" format="2">
  <advance width="506"/>
  <unicode hex="05DC"/>
  <anchor x="261" y="0" name="Anchor_1"/>
  <anchor x="118" y="57" name="dagesh"/>
  <anchor x="-33" y="0" name="holam"/>
  <outline>
    <contour>
      <point x="231" y="-12" type="line"/>
      <point x="59" y="49" type="line"/>
      <point x="275" y="447" type="line"/>
      <point x="20" y="447" type="line"/>
      <point x="20" y="725" type="line"/>
      <point x="202" y="725" type="line"/>
      <point x="202" y="590" type="line"/>
      <point x="486" y="590" type="line"/>
      <point x="485" y="447" type="line"/>
    </contour>
  </outline>
</glyph>
<glyph name="finalmem-hebr" format="2">
  <advance width="634"/>
  <unicode hex="05DD"/>
  <anchor x="312" y="0" name="Anchor_1"/>
  <anchor x="319" y="3" name="dagesh"/>
  <outline>
    <contour>
      <point x="402" y="143" type="line"/>
      <point x="402" y="447" type="line"/>
      <point x="232" y="447" type="line"/>
      <point x="232" y="143" type="line"/>
    </contour>
    <contour>
      <point x="584" y="0" type="line"/>
      <point x="50" y="0" type="line"/>
      <point x="50" y="590" type="line"/>
      <point x="584" y="590" type="line"/>
    </contour>
  </outline>
</glyph>
<glyph name="mem-hebr" format="2">
  <advance width="676"/>
  <unicode hex="05DE"/>
  <anchor x="350" y="0" name="Anchor_1"/>
  <anchor x="374" y="-12" name="dagesh"/>
  <outline>
    <contour>
      <point x="410" y="-13" type="curve" smooth="yes"/>
      <point x="365" y="-13"/>
      <point x="323" y="-7"/>
      <point x="294" y="4" type="curve"/>
      <point x="327" y="153" type="line"/>
      <point x="348" y="149"/>
      <point x="366" y="147"/>
      <point x="381" y="147" type="curve" smooth="yes"/>
      <point x="440" y="147"/>
      <point x="454" y="176"/>
      <point x="454" y="289" type="curve" smooth="yes"/>
      <point x="454" y="445" type="line"/>
      <point x="296" y="445"/>
      <point x="238" y="127"/>
      <point x="203" y="-17" type="curve"/>
      <point x="27" y="14" type="line"/>
      <point x="69" y="263"/>
      <point x="202" y="590"/>
      <point x="470" y="590" type="curve" smooth="yes"/>
      <point x="632" y="590" type="line"/>
      <point x="632" y="259" type="line" smooth="yes"/>
      <point x="632" y="73"/>
      <point x="542" y="-13"/>
    </contour>
    <contour>
      <point x="190" y="267" type="line"/>
      <point x="9" y="557" type="line"/>
      <point x="163" y="614" type="line"/>
      <point x="258" y="470" type="line"/>
    </contour>
  </outline>
</glyph>
<glyph name="finalnun-hebr" format="2">
  <advance width="355"/>
  <unicode hex="05DF"/>
  <anchor x="60" y="360" name="Anchor_1"/>
  <anchor x="48" y="-48" name="dagesh"/>
  <outline>
    <contour>
      <point x="305" y="-172" type="line"/>
      <point x="123" y="-208" type="line"/>
      <point x="123" y="447" type="line"/>
      <point x="20" y="447" type="line"/>
      <point x="40" y="590" type="line"/>
      <point x="305" y="590" type="line"/>
    </contour>
  </outline>
</glyph>
<glyph name="nun-hebr" format="2">
  <advance width="408"/>
  <unicode hex="05E0"/>
  <anchor x="220" y="0" name="Anchor_1"/>
  <anchor x="99" y="0" name="dagesh"/>
  <outline>
    <contour>
      <point x="363" y="0" type="line"/>
      <point x="25" y="0" type="line"/>
      <point x="25" y="143" type="line"/>
      <point x="185" y="143" type="line"/>
      <point x="185" y="368" type="line" smooth="yes"/>
      <point x="185" y="421"/>
      <point x="160" y="441"/>
      <point x="118" y="441" type="curve" smooth="yes"/>
      <point x="95" y="441"/>
      <point x="72" y="437"/>
      <point x="47" y="429" type="curve"/>
      <point x="20" y="572" type="line"/>
      <point x="65" y="586"/>
      <point x="115" y="593"/>
      <point x="161" y="593" type="curve" smooth="yes"/>
      <point x="302" y="593"/>
      <point x="363" y="520"/>
      <point x="363" y="400" type="curve" smooth="yes"/>
    </contour>
  </outline>
</glyph>
<glyph name="samekh-hebr" format="2">
  <advance width="618"/>
  <unicode hex="05E1"/>
  <anchor x="327" y="0" name="Anchor_1"/>
  <anchor x="316" y="15" name="dagesh"/>
  <outline>
    <contour>
      <point x="314" y="150" type="curve" smooth="yes"/>
      <point x="379" y="150"/>
      <point x="408" y="175"/>
      <point x="408" y="300" type="curve" smooth="yes"/>
      <point x="408" y="401"/>
      <point x="384" y="442"/>
      <point x="295" y="442" type="curve" smooth="yes"/>
      <point x="272" y="442"/>
      <point x="250" y="442"/>
      <point x="227" y="442" type="curve"/>
      <point x="227" y="275" type="line" smooth="yes"/>
      <point x="227" y="163"/>
      <point x="275" y="150"/>
    </contour>
    <contour>
      <point x="318" y="-11" type="curve" smooth="yes"/>
      <point x="53" y="-11"/>
      <point x="45" y="216"/>
      <point x="45" y="290" type="curve" smooth="yes"/>
      <point x="45" y="574" type="line"/>
      <point x="111" y="586"/>
      <point x="183" y="595"/>
      <point x="298" y="595" type="curve" smooth="yes"/>
      <point x="534" y="595"/>
      <point x="588" y="494"/>
      <point x="588" y="300" type="curve" smooth="yes"/>
      <point x="588" y="80"/>
      <point x="478" y="-11"/>
    </contour>
  </outline>
</glyph>
<glyph name="ayin-hebr" format="2">
  <advance width="612"/>
  <unicode hex="05E2"/>
  <anchor x="303" y="0" name="Anchor_1"/>
  <anchor x="326" y="69" name="dagesh"/>
  <outline>
    <contour>
      <point x="233" y="-13" type="curve" smooth="yes"/>
      <point x="138" y="-13"/>
      <point x="69" y="-4"/>
      <point x="10" y="13" type="curve"/>
      <point x="31" y="169" type="line"/>
      <point x="88" y="155"/>
      <point x="142" y="148"/>
      <point x="201" y="148" type="curve" smooth="yes"/>
      <point x="351" y="148"/>
      <point x="385" y="208"/>
      <point x="385" y="340" type="curve" smooth="yes"/>
      <point x="385" y="590" type="line"/>
      <point x="567" y="590" type="line"/>
      <point x="567" y="323" type="line" smooth="yes"/>
      <point x="567" y="80"/>
      <point x="426" y="-13"/>
    </contour>
    <contour>
      <point x="343" y="62" type="line"/>
      <point x="182" y="61" type="line"/>
      <point x="29" y="576" type="line"/>
      <point x="208" y="602" type="line"/>
    </contour>
  </outline>
</glyph>
<glyph name="finalpe-hebr" format="2">
  <advance width="605"/>
  <unicode hex="05E3"/>
  <anchor x="312" y="336" name="Anchor_1"/>
  <anchor x="311" y="-66" name="dagesh"/>
  <outline>
    <contour>
      <point x="560" y="-172" type="line"/>
      <point x="378" y="-208" type="line"/>
      <point x="378" y="334" type="line" smooth="yes"/>
      <point x="378" y="406"/>
      <point x="355" y="444"/>
      <point x="295" y="443" type="curve" smooth="yes"/>
      <point x="262" y="442"/>
      <point x="234" y="443"/>
      <point x="220" y="443" type="curve"/>
      <point x="220" y="405" type="line" smooth="yes"/>
      <point x="220" y="357"/>
      <point x="226" y="322"/>
      <point x="272" y="280" type="curve"/>
      <point x="174" y="174" type="line"/>
      <point x="83" y="230"/>
      <point x="38" y="286"/>
      <point x="42" y="368" type="curve" smooth="yes"/>
      <point x="52" y="581" type="line"/>
      <point x="118" y="590"/>
      <point x="202" y="598"/>
      <point x="288" y="595" type="curve" smooth="yes"/>
      <point x="451" y="589"/>
      <point x="560" y="525"/>
      <point x="560" y="322" type="curve" smooth="yes"/>
    </contour>
  </outline>
</glyph>
<glyph name="pe-hebr" format="2">
  <advance width="582"/>
  <unicode hex="05E4"/>
  <anchor x="314" y="0" name="Anchor_1"/>
  <anchor x="288" y="-57" name="dagesh"/>
  <outline>
    <contour>
      <point x="242" y="-13" type="curve" smooth="yes"/>
      <point x="144" y="-13"/>
      <point x="64" y="6"/>
      <point x="30" y="22" type="curve"/>
      <point x="51" y="170" type="line"/>
      <point x="116" y="152"/>
      <point x="158" y="143"/>
      <point x="217" y="143" type="curve" smooth="yes"/>
      <point x="345" y="143"/>
      <point x="370" y="198"/>
      <point x="370" y="307" type="curve" smooth="yes"/>
      <point x="370" y="415"/>
      <point x="340" y="448"/>
      <point x="278" y="448" type="curve" smooth="yes"/>
      <point x="258" y="448"/>
      <point x="237" y="448"/>
      <point x="213" y="447" type="curve"/>
      <point x="211" y="412" type="line" smooth="yes"/>
      <point x="209" y="372"/>
      <point x="217" y="342"/>
      <point x="251" y="293" type="curve"/>
      <point x="160" y="195" type="line"/>
      <point x="64" y="255"/>
      <point x="23" y="305"/>
      <point x="33" y="414" type="curve" smooth="yes"/>
      <point x="48" y="575" type="line"/>
      <point x="108" y="590"/>
      <point x="185" y="597"/>
      <point x="279" y="597" type="curve" smooth="yes"/>
      <point x="452" y="597"/>
      <point x="552" y="517"/>
      <point x="552" y="291" type="curve" smooth="yes"/>
      <point x="552" y="98"/>
      <point x="465" y="-13"/>
    </contour>
  </outline>
</glyph>
<glyph name="finaltsadi-hebr" format="2">
  <advance width="589"/>
  <unicode hex="05E5"/>
  <anchor x="170" y="252" name="Anchor_1"/>
  <anchor x="281" y="231" name="dagesh"/>
  <outline>
    <contour>
      <point x="561" y="-147" type="line"/>
      <point x="417" y="-229" type="line"/>
      <point x="0" y="557" type="line"/>
      <point x="158" y="610" type="line"/>
    </contour>
    <contour>
      <point x="350" y="233" type="line"/>
      <point x="238" y="366" type="line"/>
      <point x="462" y="621" type="line"/>
      <point x="581" y="509" type="line"/>
    </contour>
  </outline>
</glyph>
<glyph name="tsadi-hebr" format="2">
  <advance width="585"/>
  <unicode hex="05E6"/>
  <anchor x="300" y="0" name="Anchor_1"/>
  <anchor x="162" y="-75" name="dagesh"/>
  <outline>
    <contour>
      <point x="495" y="0" type="line"/>
      <point x="45" y="0" type="line"/>
      <point x="45" y="143" type="line"/>
      <point x="310" y="143" type="line"/>
      <point x="5" y="557" type="line"/>
      <point x="158" y="619" type="line"/>
      <point x="520" y="143" type="line"/>
    </contour>
    <contour>
      <point x="378" y="259" type="line"/>
      <point x="271" y="372" type="line"/>
      <point x="467" y="618" type="line"/>
      <point x="581" y="503" type="line"/>
    </contour>
  </outline>
</glyph>
<glyph name="qof-hebr" format="2">
  <advance width="607"/>
  <unicode hex="05E7"/>
  <anchor x="380" y="0" name="Anchor_1"/>
  <anchor x="295" y="39" name="dagesh"/>
  <outline>
    <contour>
      <point x="427" y="-12" type="line"/>
      <point x="264" y="71" type="line"/>
      <point x="396" y="447" type="line"/>
      <point x="25" y="447" type="line"/>
      <point x="43" y="590" type="line"/>
      <point x="582" y="590" type="line"/>
      <point x="581" y="447" type="line"/>
    </contour>
    <contour>
      <point x="235" y="-172" type="line"/>
      <point x="53" y="-208" type="line"/>
      <point x="53" y="342" type="line"/>
      <point x="235" y="367" type="line"/>
    </contour>
  </outline>
</glyph>
<glyph name="resh-hebr" format="2">
  <advance width="532"/>
  <unicode hex="05E8"/>
  <anchor x="399" y="0" name="Anchor_1"/>
  <anchor x="192" y="-21" name="dagesh"/>
  <outline>
    <contour>
      <point x="492" y="0" type="line"/>
      <point x="310" y="0" type="line"/>
      <point x="310" y="319" type="line" smooth="yes"/>
      <point x="310" y="406"/>
      <point x="289" y="444"/>
      <point x="203" y="444" type="curve" smooth="yes"/>
      <point x="159" y="444"/>
      <point x="107" y="437"/>
      <point x="49" y="428" type="curve"/>
      <point x="26" y="572" type="line"/>
      <point x="67" y="582"/>
      <point x="136" y="595"/>
      <point x="226" y="595" type="curve" smooth="yes"/>
      <point x="427" y="595"/>
      <point x="492" y="497"/>
      <point x="492" y="391" type="curve" smooth="yes"/>
    </contour>
  </outline>
</glyph>
<glyph name="shin-hebr" format="2">
  <advance width="789"/>
  <unicode hex="05E9"/>
  <anchor x="396" y="0" name="Anchor_1"/>
  <anchor x="459" y="-69" name="dagesh"/>
  <anchor x="651" y="0" name="shin - liga"/>
  <anchor x="135" y="0" name="sin"/>
  <outline>
    <contour>
      <point x="486" y="290" type="line"/>
      <point x="312" y="250" type="line"/>
      <point x="312" y="590" type="line"/>
      <point x="486" y="590" type="line"/>
    </contour>
    <contour>
      <point x="395" y="-13" type="curve" smooth="yes"/>
      <point x="166" y="-13"/>
      <point x="45" y="99"/>
      <point x="45" y="290" type="curve" smooth="yes"/>
      <point x="45" y="590" type="line"/>
      <point x="223" y="590" type="line"/>
      <point x="223" y="300" type="line" smooth="yes"/>
      <point x="223" y="207"/>
      <point x="261" y="148"/>
      <point x="395" y="148" type="curve" smooth="yes"/>
      <point x="529" y="148"/>
      <point x="565" y="217"/>
      <point x="565" y="300" type="curve" smooth="yes"/>
      <point x="565" y="590" type="line"/>
      <point x="744" y="590" type="line"/>
      <point x="744" y="290" type="line" smooth="yes"/>
      <point x="744" y="99"/>
      <point x="625" y="-13"/>
    </contour>
  </outline>
</glyph>
<glyph name="tav-hebr" format="2">
  <advance width="670"/>
  <unicode hex="05EA"/>
  <anchor x="362" y="0" name="Anchor_1"/>
  <anchor x="363" y="0" name="dagesh"/>
  <outline>
    <contour>
      <point x="620" y="0" type="line"/>
      <point x="438" y="0" type="line"/>
      <point x="438" y="447" type="line"/>
      <point x="292" y="447" type="line"/>
      <point x="292" y="209" type="line" smooth="yes"/>
      <point x="292" y="65"/>
      <point x="239" y="-7"/>
      <point x="107" y="-7" type="curve" smooth="yes"/>
      <point x="65" y="-7"/>
      <point x="35" y="-4"/>
      <point x="7" y="2" type="curve"/>
      <point x="12" y="152" type="line"/>
      <point x="32" y="149"/>
      <point x="46" y="148"/>
      <point x="56" y="148" type="curve" smooth="yes"/>
      <point x="100" y="148"/>
      <point x="113" y="167"/>
      <point x="113" y="199" type="curve" smooth="yes"/>
      <point x="113" y="447" type="line"/>
      <point x="24" y="447" type="line"/>
      <point x="44" y="590" type="line"/>
      <point x="620" y="590" type="line"/>
    </contour>
  </outline>
</glyph>
<glyph name="punctuationgeresh-hebr" format="2">
  <advance width="235"/>
  <unicode hex="05F3"/>
  <outline>
    <contour>
      <point x="60" y="409" type="curve"/>
      <point x="51" y="409" type="line"/>
      <point x="51" y="480" type="line"/>
      <point x="103" y="492"/>
      <point x="117" y="521.667"/>
      <point x="117" y="555" type="curve" smooth="yes"/>
      <point x="117" y="573" type="line"/>
      <point x="40" y="573" type="line"/>
      <point x="40" y="727" type="line"/>
      <point x="195" y="727" type="line"/>
      <point x="195" y="604" type="line" smooth="yes"/>
      <point x="195" y="492"/>
      <point x="150.667" y="435.667"/>
    </contour>
  </outline>
</glyph>
<glyph name="punctuationgershayim-hebr" format="2">
  <advance width="431"/>
  <unicode hex="05F4"/>
  <outline>
    <contour>
      <point x="255" y="409" type="curve"/>
      <point x="247" y="409" type="line"/>
      <point x="247" y="480" type="line"/>
      <point x="299" y="492"/>
      <point x="312" y="521.667"/>
      <point x="312" y="555" type="curve" smooth="yes"/>
      <point x="312" y="573" type="line"/>
      <point x="236" y="573" type="line"/>
      <point x="236" y="727" type="line"/>
      <point x="391" y="727" type="line"/>
      <point x="391" y="594" type="line" smooth="yes"/>
      <point x="391" y="495.333"/>
      <point x="345.667" y="435.667"/>
    </contour>
    <contour>
      <point x="60" y="409" type="curve"/>
      <point x="51" y="409" type="line"/>
      <point x="51" y="480" type="line"/>
      <point x="103" y="492"/>
      <point x="117" y="521.667"/>
      <point x="117" y="555" type="curve" smooth="yes"/>
      <point x="117" y="573" type="line"/>
      <point x="40" y="573" type="line"/>
      <point x="40" y="727" type="line"/>
      <point x="195" y="727" type="line"/>
      <point x="195" y="604" type="line" smooth="yes"/>
      <point x="195" y="492"/>
      <point x="150.667" y="435.667"/>
    </contour>
  </outline>
</glyph>
<glyph name="signanusvaracomb-tml2" format="2">
  <unicode hex="0B82"/>
  <anchor x="0" y="0" name="top-yezi"/>
  <outline>
    <contour>
      <point x="0" y="622" type="curve" smooth="yes"/>
      <point x="90.009" y="622"/>
      <point x="150" y="684.869"/>
      <point x="150" y="765" type="curve" smooth="yes"/>
      <point x="150" y="847.376"/>
      <point x="90.171" y="910"/>
      <point x="0" y="910" type="curve" smooth="yes"/>
      <point x="-89.209" y="910"/>
      <point x="-149" y="847.131"/>
      <point x="-149" y="765" type="curve" smooth="yes"/>
      <point x="-149" y="685.109"/>
      <point x="-89.047" y="622"/>
    </contour>
    <contour>
      <point x="0" y="727" type="curve" smooth="yes"/>
      <point x="-21.333" y="727"/>
      <point x="-38" y="743.667"/>
      <point x="-38" y="765" type="curve" smooth="yes"/>
      <point x="-38" y="789"/>
      <point x="-21.333" y="805"/>
      <point x="0" y="805" type="curve" smooth="yes"/>
      <point x="22.667" y="805"/>
      <point x="41" y="789"/>
      <point x="41" y="765" type="curve" smooth="yes"/>
      <point x="41" y="743.667"/>
      <point x="22.667" y="727"/>
    </contour>
  </outline>
</glyph>
<glyph name="signviramacomb-tml2" format="2">
  <unicode hex="0BCD"/>
  <anchor x="0" y="0" name="top-yezi"/>
  <outline>
    <contour>
      <point x="0" y="614" type="curve" smooth="yes"/>
      <point x="54.667" y="614"/>
      <point x="95" y="653.667"/>
      <point x="95" y="707" type="curve" smooth="yes"/>
      <point x="95" y="761.667"/>
      <point x="54.667" y="801"/>
      <point x="0" y="801" type="curve" smooth="yes"/>
      <point x="-53.333" y="801"/>
      <point x="-93" y="761.667"/>
      <point x="-93" y="707" type="curve" smooth="yes"/>
      <point x="-93" y="653.667"/>
      <point x="-53.333" y="614"/>
    </contour>
  </outline>
</glyph>
<glyph name="quotesinglbase" format="2">
  <advance width="243"/>
  <unicode hex="201A"/>
  <outline>
    <contour>
      <point x="121" y="147" type="curve" smooth="yes"/>
      <point x="71.738" y="147"/>
      <point x="29" y="104.563"/>
      <point x="29" y="55" type="curve" smooth="yes"/>
      <point x="29" y="22.251"/>
      <point x="47.214" y="-6.476"/>
      <point x="72" y="-23" type="curve"/>
      <point x="66.667" y="-40.333"/>
      <point x="38.667" y="-63.333"/>
      <point x="20" y="-74" type="curve"/>
      <point x="56" y="-154" type="line"/>
      <point x="148.889" y="-118.111"/>
      <point x="213" y="-35.588"/>
      <point x="213" y="40" type="curve" smooth="yes"/>
      <point x="213" y="104"/>
      <point x="171.667" y="147"/>
    </contour>
  </outline>
</glyph>
<glyph name="quotedblleft" format="2">
  <advance width="453"/>
  <unicode hex="201C"/>
  <outline>
    <contour>
      <point x="122" y="441" type="curve" smooth="yes"/>
      <point x="174.458" y="441"/>
      <point x="214" y="487.296"/>
      <point x="214" y="533" type="curve" smooth="yes"/>
      <point x="214" y="566.333"/>
      <point x="195" y="596.333"/>
      <point x="171" y="611" type="curve"/>
      <point x="176.333" y="628.333"/>
      <point x="204.333" y="651.333"/>
      <point x="223" y="662" type="curve"/>
      <point x="187" y="742" type="line"/>
      <point x="100.537" y="710.559"/>
      <point x="30" y="628.038"/>
      <point x="30" y="548" type="curve" smooth="yes"/>
      <point x="30" y="484"/>
      <point x="71.333" y="441"/>
    </contour>
    <contour>
      <point x="332" y="441" type="curve" smooth="yes"/>
      <point x="384.458" y="441"/>
      <point x="424" y="487.296"/>
      <point x="424" y="533" type="curve" smooth="yes"/>
      <point x="424" y="564.431"/>
      <point x="408.453" y="594.986"/>
      <point x="381" y="611" type="curve"/>
      <point x="386.333" y="628.333"/>
      <point x="414.333" y="651.333"/>
      <point x="433" y="662" type="curve"/>
      <point x="397" y="742" type="line"/>
      <point x="310.537" y="710.559"/>
      <point x="240" y="628.038"/>
      <point x="240" y="548" type="curve" smooth="yes"/>
      <point x="240" y="484"/>
      <point x="281.333" y="441"/>
    </contour>
  </outline>
</glyph>
<glyph name="quotedblright" format="2">
  <advance width="453"/>
  <unicode hex="201D"/>
  <outline>
    <contour>
      <point x="331" y="742" type="curve" smooth="yes"/>
      <point x="281.738" y="742"/>
      <point x="239" y="699.563"/>
      <point x="239" y="650" type="curve" smooth="yes"/>
      <point x="239" y="616.667"/>
      <point x="258" y="586.667"/>
      <point x="282" y="572" type="curve"/>
      <point x="276.667" y="554.667"/>
      <point x="248.667" y="531.667"/>
      <point x="230" y="521" type="curve"/>
      <point x="266" y="441" type="line"/>
      <point x="358.889" y="476.889"/>
      <point x="423" y="559.412"/>
      <point x="423" y="635" type="curve" smooth="yes"/>
      <point x="423" y="699"/>
      <point x="381.667" y="742"/>
    </contour>
    <contour>
      <point x="121" y="742" type="curve" smooth="yes"/>
      <point x="71.738" y="742"/>
      <point x="29" y="699.563"/>
      <point x="29" y="650" type="curve" smooth="yes"/>
      <point x="29" y="617.251"/>
      <point x="47.214" y="588.524"/>
      <point x="72" y="572" type="curve"/>
      <point x="66.667" y="554.667"/>
      <point x="38.667" y="531.667"/>
      <point x="20" y="521" type="curve"/>
      <point x="56" y="441" type="line"/>
      <point x="148.889" y="476.889"/>
      <point x="213" y="559.412"/>
      <point x="213" y="635" type="curve" smooth="yes"/>
      <point x="213" y="699"/>
      <point x="171.667" y="742"/>
    </contour>
  </outline>
</glyph>
<glyph name="quotedblbase" format="2">
  <advance width="453"/>
  <unicode hex="201E"/>
  <outline>
    <contour>
      <point x="121" y="147" type="curve" smooth="yes"/>
      <point x="71.738" y="147"/>
      <point x="29" y="104.563"/>
      <point x="29" y="55" type="curve" smooth="yes"/>
      <point x="29" y="22.251"/>
      <point x="47.214" y="-6.476"/>
      <point x="72" y="-23" type="curve"/>
      <point x="66.667" y="-40.333"/>
      <point x="38.667" y="-63.333"/>
      <point x="20" y="-74" type="curve"/>
      <point x="56" y="-154" type="line"/>
      <point x="148.889" y="-118.111"/>
      <point x="213" y="-35.588"/>
      <point x="213" y="40" type="curve" smooth="yes"/>
      <point x="213" y="104"/>
      <point x="171.667" y="147"/>
    </contour>
    <contour>
      <point x="331" y="147" type="curve" smooth="yes"/>
      <point x="281.738" y="147"/>
      <point x="239" y="104.563"/>
      <point x="239" y="55" type="curve" smooth="yes"/>
      <point x="239" y="21.667"/>
      <point x="258" y="-8.333"/>
      <point x="282" y="-23" type="curve"/>
      <point x="276.667" y="-40.333"/>
      <point x="248.667" y="-63.333"/>
      <point x="230" y="-74" type="curve"/>
      <point x="266" y="-154" type="line"/>
      <point x="358.889" y="-118.111"/>
      <point x="423" y="-35.588"/>
      <point x="423" y="40" type="curve" smooth="yes"/>
      <point x="423" y="104"/>
      <point x="381.667" y="147"/>
    </contour>
  </outline>
</glyph>
<glyph name="newsheqelsign" format="2">
  <advance width="844"/>
  <unicode hex="20AA"/>
  <outline>
    <contour>
      <point x="599" y="190" type="line"/>
      <point x="599" y="319" type="line" smooth="yes"/>
      <point x="599" y="420"/>
      <point x="546" y="502"/>
      <point x="396" y="526" type="curve" smooth="yes"/>
      <point x="291" y="543"/>
      <point x="174" y="531"/>
      <point x="43" y="508" type="curve"/>
      <point x="43" y="0" type="line"/>
      <point x="200" y="0" type="line"/>
      <point x="200" y="382" type="line"/>
      <point x="221" y="384"/>
      <point x="299" y="389"/>
      <point x="359" y="383" type="curve" smooth="yes"/>
      <point x="450" y="374"/>
      <point x="452" y="324"/>
      <point x="452" y="283" type="curve" smooth="yes"/>
      <point x="452" y="190" type="line"/>
    </contour>
    <contour>
      <point x="515" y="-11" type="curve" smooth="yes"/>
      <point x="685" y="-11"/>
      <point x="801" y="63"/>
      <point x="801" y="230" type="curve" smooth="yes"/>
      <point x="801" y="530" type="line"/>
      <point x="644" y="530" type="line"/>
      <point x="644" y="255" type="line" smooth="yes"/>
      <point x="644" y="180"/>
      <point x="641" y="117"/>
      <point x="515" y="117" type="curve" smooth="yes"/>
      <point x="399" y="117"/>
      <point x="396" y="180"/>
      <point x="396" y="255" type="curve" smooth="yes"/>
      <point x="396" y="333" type="line"/>
      <point x="249" y="333" type="line"/>
      <point x="249" y="220" type="line" smooth="yes"/>
      <point x="249" y="63"/>
      <point x="352" y="-11"/>
    </contour>
  </outline>
</glyph>
<glyph name="euro" format="2">
  <advance width="656"/>
  <unicode hex="20AC"/>
  <outline>
    <contour>
      <point x="0" y="480" type="line"/>
      <point x="12" y="364" type="line"/>
      <point x="516" y="364" type="line"/>
      <point x="506" y="480" type="line"/>
    </contour>
    <contour>
      <point x="0" y="318" type="line"/>
      <point x="12" y="202" type="line"/>
      <point x="516" y="202" type="line"/>
      <point x="506" y="318" type="line"/>
    </contour>
    <contour>
      <point x="639" y="637" type="line"/>
      <point x="591.426" y="669.936"/>
      <point x="514.112" y="693"/>
      <point x="439" y="693" type="curve" smooth="yes"/>
      <point x="233.301" y="693"/>
      <point x="90" y="541.874"/>
      <point x="90" y="337" type="curve" smooth="yes"/>
      <point x="90" y="134.282"/>
      <point x="218.739" y="-13"/>
      <point x="443" y="-13" type="curve" smooth="yes"/>
      <point x="518.634" y="-13"/>
      <point x="599.134" y="8.159"/>
      <point x="646" y="37" type="curve"/>
      <point x="577" y="173" type="line"/>
      <point x="542.333" y="151.667"/>
      <point x="497.333" y="136"/>
      <point x="448" y="136" type="curve" smooth="yes"/>
      <point x="363.515" y="136"/>
      <point x="278" y="208.966"/>
      <point x="278" y="338" type="curve" smooth="yes"/>
      <point x="278" y="420.667"/>
      <point x="313.5" y="484.5"/>
      <point x="363.5" y="518.5" type="curve" smooth="yes"/>
      <point x="388.5" y="535.5"/>
      <point x="414.333" y="544"/>
      <point x="441" y="544" type="curve" smooth="yes"/>
      <point x="487.713" y="544"/>
      <point x="525.063" y="535.644"/>
      <point x="585" y="514" type="curve"/>
    </contour>
  </outline>
</glyph>
<glyph name="turkishlirasign" format="2">
  <advance width="624"/>
  <unicode hex="20BA"/>
  <outline>
    <contour>
      <point x="79" y="0" type="line"/>
      <point x="261" y="0" type="line" smooth="yes"/>
      <point x="480.429" y="0"/>
      <point x="604" y="136.319"/>
      <point x="604" y="360" type="curve"/>
      <point x="416" y="361" type="line"/>
      <point x="416" y="224.73"/>
      <point x="348.66" y="149"/>
      <point x="261" y="149" type="curve"/>
      <point x="261" y="342" type="line"/>
      <point x="404" y="392" type="line"/>
      <point x="366" y="504" type="line"/>
      <point x="261" y="467" type="line"/>
      <point x="261" y="500" type="line"/>
      <point x="404" y="550" type="line"/>
      <point x="366" y="662" type="line"/>
      <point x="261" y="625" type="line"/>
      <point x="261" y="707" type="line"/>
      <point x="79" y="692" type="line"/>
      <point x="79" y="561" type="line"/>
      <point x="0" y="533" type="line"/>
      <point x="9" y="412" type="line"/>
      <point x="79" y="436" type="line"/>
      <point x="79" y="403" type="line"/>
      <point x="0" y="375" type="line"/>
      <point x="9" y="255" type="line"/>
      <point x="79" y="279" type="line"/>
    </contour>
  </outline>
</glyph>
<glyph name="rublesign" format="2">
  <advance width="666"/>
  <unicode hex="20BD"/>
  <outline>
    <contour>
      <point x="496" y="166" type="line"/>
      <point x="0" y="166" type="line"/>
      <point x="10" y="43" type="line"/>
      <point x="506" y="43" type="line"/>
    </contour>
    <contour>
      <point x="262" y="0" type="line"/>
      <point x="262" y="208" type="line"/>
      <point x="358" y="208" type="line" smooth="yes"/>
      <point x="506.409" y="208"/>
      <point x="646" y="275.792"/>
      <point x="646" y="439" type="curve" smooth="yes"/>
      <point x="646" y="597.087"/>
      <point x="527.679" y="680"/>
      <point x="366" y="680" type="curve" smooth="yes"/>
      <point x="80" y="680" type="line"/>
      <point x="80" y="0" type="line"/>
    </contour>
    <contour>
      <point x="360" y="537" type="line"/>
      <point x="420.119" y="537"/>
      <point x="458" y="499.898"/>
      <point x="458" y="439" type="curve" smooth="yes"/>
      <point x="458" y="388.017"/>
      <point x="419.628" y="351"/>
      <point x="362" y="351" type="curve" smooth="yes"/>
      <point x="262" y="351" type="line"/>
      <point x="262" y="537" type="line"/>
    </contour>
    <contour>
      <point x="206" y="340" type="line"/>
      <point x="0" y="340" type="line"/>
      <point x="10" y="217" type="line"/>
      <point x="216" y="217" type="line"/>
    </contour>
  </outline>
</glyph>
<glyph name="lscript" format="2">
  <advance width="514"/>
  <unicode hex="2113"/>
  <outline>
    <contour>
      <point x="51" y="162" type="line"/>
      <point x="63" y="168"/>
      <point x="93.927" y="178.385"/>
      <point x="107" y="181" type="curve"/>
      <point x="107" y="155" type="line" smooth="yes"/>
      <point x="107" y="19"/>
      <point x="231" y="-11"/>
      <point x="344" y="-11" type="curve" smooth="yes"/>
      <point x="396.072" y="-11"/>
      <point x="455.228" y="13.024"/>
      <point x="478" y="32" type="curve"/>
      <point x="426" y="156" type="line"/>
      <point x="403.333" y="142.667"/>
      <point x="373.333" y="137"/>
      <point x="356" y="137" type="curve" smooth="yes"/>
      <point x="311.497" y="137"/>
      <point x="289" y="149.447"/>
      <point x="289" y="185" type="curve" smooth="yes"/>
      <point x="289" y="275" type="line"/>
      <point x="398.025" y="349.055"/>
      <point x="484" y="442.584"/>
      <point x="484" y="544" type="curve" smooth="yes"/>
      <point x="484" y="643.951"/>
      <point x="406.971" y="702"/>
      <point x="300" y="702" type="curve" smooth="yes"/>
      <point x="202" y="702"/>
      <point x="107" y="638"/>
      <point x="107" y="532" type="curve" smooth="yes"/>
      <point x="107" y="350" type="line"/>
      <point x="81.506" y="340.73"/>
      <point x="42.984" y="322.995"/>
      <point x="10" y="312" type="curve"/>
    </contour>
    <contour>
      <point x="283" y="440" type="curve"/>
      <point x="283" y="527" type="line" smooth="yes"/>
      <point x="283" y="543"/>
      <point x="288.333" y="560"/>
      <point x="303" y="560" type="curve" smooth="yes"/>
      <point x="316.333" y="560"/>
      <point x="323" y="551"/>
      <point x="323" y="539" type="curve" smooth="yes"/>
      <point x="323" y="503"/>
      <point x="305.667" y="469.333"/>
    </contour>
  </outline>
</glyph>
<glyph name="Ohmsign-grek" format="2">
  <advance width="726"/>
  <unicode hex="2126"/>
  <outline>
    <contour>
      <point x="509" y="338" type="curve" smooth="yes"/>
      <point x="509" y="267.953"/>
      <point x="485.932" y="167.234"/>
      <point x="424" y="143" type="curve"/>
      <point x="424" y="0" type="line"/>
      <point x="680" y="0" type="line"/>
      <point x="696" y="143" type="line"/>
      <point x="633" y="143" type="line"/>
      <point x="673.571" y="203.856"/>
      <point x="696" y="273.58"/>
      <point x="696" y="337" type="curve" smooth="yes"/>
      <point x="696" y="477"/>
      <point x="640" y="587.833"/>
      <point x="540" y="648.5" type="curve" smooth="yes"/>
      <point x="490" y="678.833"/>
      <point x="431" y="694"/>
      <point x="363" y="694" type="curve" smooth="yes"/>
      <point x="227" y="694"/>
      <point x="125.667" y="629.833"/>
      <point x="71" y="522.5" type="curve" smooth="yes"/>
      <point x="43.667" y="468.833"/>
      <point x="30" y="407"/>
      <point x="30" y="337" type="curve" smooth="yes"/>
      <point x="30" y="273.58"/>
      <point x="52.429" y="203.856"/>
      <point x="93" y="143" type="curve"/>
      <point x="30" y="143" type="line"/>
      <point x="46" y="0" type="line"/>
      <point x="302" y="0" type="line"/>
      <point x="302" y="143" type="line"/>
      <point x="239.165" y="166.563"/>
      <point x="217" y="267.256"/>
      <point x="217" y="338" type="curve" smooth="yes"/>
      <point x="217" y="463.61"/>
      <point x="274.223" y="542"/>
      <point x="363" y="542" type="curve" smooth="yes"/>
      <point x="452.638" y="542"/>
      <point x="509" y="463.303"/>
    </contour>
  </outline>
</glyph>
<glyph name="estimated" format="2">
  <advance width="533"/>
  <unicode hex="212E"/>
  <outline>
    <contour>
      <point x="513" y="197" type="line"/>
      <point x="513" y="250" type="line" smooth="yes"/>
      <point x="513" y="395.964"/>
      <point x="430.943" y="502"/>
      <point x="281" y="502" type="curve" smooth="yes"/>
      <point x="138" y="502"/>
      <point x="20" y="412"/>
      <point x="20" y="242" type="curve" smooth="yes"/>
      <point x="20" y="82.661"/>
      <point x="134.79" y="-11"/>
      <point x="310" y="-11" type="curve" smooth="yes"/>
      <point x="394.471" y="-11"/>
      <point x="474.246" y="13.181"/>
      <point x="512" y="41" type="curve"/>
      <point x="461" y="164" type="line"/>
      <point x="431.667" y="149.333"/>
      <point x="386.667" y="131"/>
      <point x="328" y="131" type="curve" smooth="yes"/>
      <point x="266.805" y="131"/>
      <point x="232.376" y="155.927"/>
      <point x="218" y="197" type="curve"/>
    </contour>
    <contour>
      <point x="213" y="287" type="line"/>
      <point x="213" y="327.197"/>
      <point x="244.261" y="356"/>
      <point x="276" y="356" type="curve" smooth="yes"/>
      <point x="322.188" y="356"/>
      <point x="339" y="313.839"/>
      <point x="339" y="287" type="curve"/>
    </contour>
  </outline>
</glyph>
<glyph name="partialdifferential" format="2">
  <advance width="590"/>
  <unicode hex="2202"/>
  <outline>
    <contour>
      <point x="570" y="254" type="curve" smooth="yes"/>
      <point x="570" y="486"/>
      <point x="387" y="689"/>
      <point x="114" y="750" type="curve"/>
      <point x="53" y="638" type="line"/>
      <point x="299.535" y="573.565"/>
      <point x="382" y="411.718"/>
      <point x="382" y="240" type="curve" smooth="yes"/>
      <point x="382" y="171.719"/>
      <point x="350.448" y="137"/>
      <point x="293" y="137" type="curve" smooth="yes"/>
      <point x="240.646" y="137"/>
      <point x="208" y="178.603"/>
      <point x="208" y="245" type="curve" smooth="yes"/>
      <point x="208" y="314.33"/>
      <point x="241.776" y="354"/>
      <point x="297" y="354" type="curve" smooth="yes"/>
      <point x="334.918" y="354"/>
      <point x="396.723" y="336.782"/>
      <point x="438" y="288" type="curve"/>
      <point x="517" y="391" type="line"/>
      <point x="469.562" y="452.274"/>
      <point x="348.978" y="502"/>
      <point x="275" y="502" type="curve" smooth="yes"/>
      <point x="127" y="502"/>
      <point x="20" y="393"/>
      <point x="20" y="245" type="curve" smooth="yes"/>
      <point x="20" y="78.586"/>
      <point x="136.579" y="-11"/>
      <point x="302" y="-11" type="curve" smooth="yes"/>
      <point x="459.893" y="-11"/>
      <point x="570" y="92.855"/>
    </contour>
  </outline>
</glyph>
<glyph name="bulletoperator" format="2">
  <advance width="308"/>
  <unicode hex="2219"/>
  <outline>
    <contour>
      <point x="153" y="208" type="curve" smooth="yes"/>
      <point x="221.93" y="208"/>
      <point x="278" y="262.386"/>
      <point x="278" y="331" type="curve" smooth="yes"/>
      <point x="278" y="399.064"/>
      <point x="221.534" y="455"/>
      <point x="153" y="455" type="curve" smooth="yes"/>
      <point x="84.737" y="455"/>
      <point x="30" y="399.114"/>
      <point x="30" y="331" type="curve" smooth="yes"/>
      <point x="30" y="262.335"/>
      <point x="84.335" y="208"/>
    </contour>
  </outline>
</glyph>
<glyph name="infinity" format="2">
  <advance width="874"/>
  <unicode hex="221E"/>
  <outline>
    <contour>
      <point x="268" y="494" type="curve" smooth="yes"/>
      <point x="128.441" y="494"/>
      <point x="20" y="402.56"/>
      <point x="20" y="242" type="curve" smooth="yes"/>
      <point x="20" y="98.191"/>
      <point x="124.672" y="0"/>
      <point x="270" y="0" type="curve" smooth="yes"/>
      <point x="331.509" y="0"/>
      <point x="405.779" y="37.642"/>
      <point x="432" y="80" type="curve"/>
      <point x="471.294" y="36.57"/>
      <point x="532.147" y="0"/>
      <point x="606" y="0" type="curve" smooth="yes"/>
      <point x="750.967" y="0"/>
      <point x="854" y="103.498"/>
      <point x="854" y="252" type="curve" smooth="yes"/>
      <point x="854" y="400.528"/>
      <point x="756.682" y="494"/>
      <point x="604" y="494" type="curve" smooth="yes"/>
      <point x="542.147" y="494"/>
      <point x="470.48" y="456.72"/>
      <point x="442" y="414" type="curve"/>
      <point x="404.905" y="457.277"/>
      <point x="341.053" y="494"/>
    </contour>
    <contour>
      <point x="508" y="215" type="curve"/>
      <point x="519" y="243" type="line" smooth="yes"/>
      <point x="534.046" y="285.629"/>
      <point x="568.062" y="327"/>
      <point x="598" y="327" type="curve" smooth="yes"/>
      <point x="642.732" y="327"/>
      <point x="676" y="293.099"/>
      <point x="676" y="255" type="curve" smooth="yes"/>
      <point x="676" y="206.47"/>
      <point x="643.705" y="167"/>
      <point x="598" y="167" type="curve" smooth="yes"/>
      <point x="561.996" y="167"/>
      <point x="532.456" y="186.469"/>
    </contour>
    <contour>
      <point x="366" y="279" type="curve"/>
      <point x="356" y="252" type="line" smooth="yes"/>
      <point x="337.586" y="199.389"/>
      <point x="308.124" y="167"/>
      <point x="276" y="167" type="curve" smooth="yes"/>
      <point x="231.23" y="167"/>
      <point x="198" y="202.051"/>
      <point x="198" y="239" type="curve" smooth="yes"/>
      <point x="198" y="287.293"/>
      <point x="230.569" y="327"/>
      <point x="276" y="327" type="curve" smooth="yes"/>
      <point x="312.096" y="327"/>
      <point x="342.589" y="308.264"/>
    </contour>
  </outline>
</glyph>
<glyph name="integral" format="2">
  <advance width="560"/>
  <unicode hex="222B"/>
  <outline>
    <contour>
      <point x="371" y="570" type="line"/>
      <point x="371" y="610"/>
      <point x="395.333" y="635"/>
      <point x="438" y="635" type="curve" smooth="yes"/>
      <point x="455.333" y="635"/>
      <point x="485.333" y="629.333"/>
      <point x="508" y="616" type="curve"/>
      <point x="560" y="740" type="line"/>
      <point x="535.755" y="762.225"/>
      <point x="471.844" y="783"/>
      <point x="426" y="783" type="curve" smooth="yes"/>
      <point x="294.592" y="783"/>
      <point x="189" y="714.463"/>
      <point x="189" y="590" type="curve" smooth="yes"/>
      <point x="189" y="34" type="line" smooth="yes"/>
      <point x="189" y="-6"/>
      <point x="164.667" y="-31"/>
      <point x="122" y="-31" type="curve" smooth="yes"/>
      <point x="104.667" y="-31"/>
      <point x="74.667" y="-25.333"/>
      <point x="52" y="-12" type="curve"/>
      <point x="0" y="-136" type="line"/>
      <point x="22.182" y="-154.485"/>
      <point x="81.764" y="-179"/>
      <point x="134" y="-179" type="curve" smooth="yes"/>
      <point x="274.01" y="-179"/>
      <point x="371" y="-103.588"/>
      <point x="371" y="14" type="curve" smooth="yes"/>
    </contour>
  </outline>
</glyph>
<glyph name="almostequalto" format="2">
  <advance width="565"/>
  <unicode hex="2248"/>
  <outline>
    <contour>
      <point x="409" y="472" type="line"/>
      <point x="409" y="449.753"/>
      <point x="391.28" y="423"/>
      <point x="367" y="423" type="curve" smooth="yes"/>
      <point x="345.667" y="423"/>
      <point x="318.667" y="429.333"/>
      <point x="284" y="440" type="curve" smooth="yes"/>
      <point x="248" y="451.333"/>
      <point x="216.667" y="457"/>
      <point x="190" y="457" type="curve" smooth="yes"/>
      <point x="97.042" y="457"/>
      <point x="30" y="412.815"/>
      <point x="30" y="297" type="curve"/>
      <point x="156" y="277" type="line"/>
      <point x="156" y="298.15"/>
      <point x="193.841" y="326"/>
      <point x="218" y="326" type="curve" smooth="yes"/>
      <point x="246" y="326"/>
      <point x="276.333" y="320.333"/>
      <point x="309" y="309" type="curve" smooth="yes"/>
      <point x="339.667" y="298.333"/>
      <point x="369.667" y="292"/>
      <point x="399" y="292" type="curve" smooth="yes"/>
      <point x="499.69" y="292"/>
      <point x="535" y="347.95"/>
      <point x="535" y="452" type="curve"/>
    </contour>
    <contour>
      <point x="409" y="266" type="line"/>
      <point x="409" y="243.753"/>
      <point x="391.28" y="217"/>
      <point x="367" y="217" type="curve" smooth="yes"/>
      <point x="345.667" y="217"/>
      <point x="318.667" y="223.333"/>
      <point x="284" y="234" type="curve" smooth="yes"/>
      <point x="248" y="245.333"/>
      <point x="216.667" y="251"/>
      <point x="190" y="251" type="curve" smooth="yes"/>
      <point x="83.009" y="251"/>
      <point x="30" y="197.988"/>
      <point x="30" y="91" type="curve"/>
      <point x="156" y="71" type="line"/>
      <point x="156" y="92.15"/>
      <point x="193.841" y="120"/>
      <point x="218" y="120" type="curve" smooth="yes"/>
      <point x="246" y="120"/>
      <point x="276.333" y="114.333"/>
      <point x="309" y="103" type="curve" smooth="yes"/>
      <point x="339.667" y="92.333"/>
      <point x="369.667" y="86"/>
      <point x="399" y="86" type="curve" smooth="yes"/>
      <point x="498.627" y="86"/>
      <point x="535" y="144.863"/>
      <point x="535" y="246" type="curve"/>
    </contour>
  </outline>
</glyph>
<glyph name="breve.case" format="2">
  <advance width="380"/>
  <anchor x="190" y="680" name="_top"/>
  <outline>
    <contour>
      <point x="190" y="739" type="curve" smooth="yes"/>
      <point x="298" y="739"/>
      <point x="370" y="814.46"/>
      <point x="370" y="928" type="curve"/>
      <point x="241" y="928" type="line"/>
      <point x="241" y="895"/>
      <point x="222" y="872"/>
      <point x="190" y="872" type="curve" smooth="yes"/>
      <point x="158" y="872"/>
      <point x="139" y="895"/>
      <point x="139" y="928" type="curve"/>
      <point x="10" y="928" type="line"/>
      <point x="10" y="815.804"/>
      <point x="79" y="739"/>
    </contour>
  </outline>
</glyph>
<glyph name="brevecomb.case" format="2">
  <outline>
    <contour>
      <point x="241" y="928" type="line"/>
      <point x="241" y="894.667"/>
      <point x="222" y="872"/>
      <point x="190" y="872" type="curve" smooth="yes"/>
      <point x="158" y="872"/>
      <point x="139" y="894.667"/>
      <point x="139" y="928" type="curve"/>
      <point x="10" y="928" type="line"/>
      <point x="10" y="815.804"/>
      <point x="78.692" y="741.061"/>
      <point x="190" y="739" type="curve" smooth="yes"/>
      <point x="302.215" y="741.04"/>
      <point x="370" y="816.402"/>
      <point x="370" y="928" type="curve"/>
    </contour>
  </outline>
</glyph>
<glyph name="dotaccent.case" format="2">
  <advance width="202"/>
  <anchor x="102" y="680" name="_top"/>
  <outline>
    <contour>
      <point x="102" y="744" type="curve" smooth="yes"/>
      <point x="155.333" y="744"/>
      <point x="192" y="782.667"/>
      <point x="192" y="836" type="curve" smooth="yes"/>
      <point x="192" y="886.667"/>
      <point x="155.333" y="928"/>
      <point x="102" y="928" type="curve" smooth="yes"/>
      <point x="51.333" y="928"/>
      <point x="10" y="886.667"/>
      <point x="10" y="836" type="curve" smooth="yes"/>
      <point x="10" y="782.667"/>
      <point x="51.333" y="744"/>
    </contour>
  </outline>
</glyph>
<glyph name="ringcomb.case" format="2">
  <anchor x="133" y="680" name="_top"/>
  <outline>
    <contour>
      <point x="133" y="976" type="curve" smooth="yes"/>
      <point x="66.122" y="976"/>
      <point x="10" y="924.924"/>
      <point x="10" y="859" type="curve" smooth="yes"/>
      <point x="10" y="791"/>
      <point x="66.333" y="744"/>
      <point x="133" y="744" type="curve" smooth="yes"/>
      <point x="202.013" y="744"/>
      <point x="256" y="792.757"/>
      <point x="256" y="859" type="curve" smooth="yes"/>
      <point x="256" y="924.924"/>
      <point x="199.878" y="976"/>
    </contour>
    <contour>
      <point x="135" y="829" type="curve" smooth="yes"/>
      <point x="119" y="829"/>
      <point x="105" y="843"/>
      <point x="105" y="859" type="curve" smooth="yes"/>
      <point x="105" y="875"/>
      <point x="119" y="887"/>
      <point x="135" y="887" type="curve" smooth="yes"/>
      <point x="151" y="887"/>
      <point x="163" y="875"/>
      <point x="163" y="859" type="curve" smooth="yes"/>
      <point x="163" y="843"/>
      <point x="151" y="829"/>
    </contour>
  </outline>
</glyph>
<glyph name="zero.zero" format="2">
  <advance width="678"/>
  <outline>
    <contour>
      <point x="20" y="284" type="curve" smooth="yes"/>
      <point x="20" y="110.614"/>
      <point x="153.094" y="-14"/>
      <point x="338" y="-14" type="curve" smooth="yes"/>
      <point x="524.507" y="-14"/>
      <point x="658" y="111.588"/>
      <point x="658" y="286" type="curve" smooth="yes"/>
      <point x="658" y="456.489"/>
      <point x="524.97" y="579"/>
      <point x="339" y="579" type="curve" smooth="yes"/>
      <point x="152.632" y="579"/>
      <point x="20" y="456.638"/>
    </contour>
    <contour>
      <point x="208" y="287" type="curve" smooth="yes"/>
      <point x="208" y="374.126"/>
      <point x="265.963" y="431"/>
      <point x="338" y="431" type="curve" smooth="yes"/>
      <point x="415.823" y="431"/>
      <point x="470" y="369.422"/>
      <point x="470" y="283" type="curve" smooth="yes"/>
      <point x="470" y="197.103"/>
      <point x="415.16" y="134"/>
      <point x="339" y="134" type="curve" smooth="yes"/>
      <point x="262.452" y="134"/>
      <point x="208" y="197.14"/>
    </contour>
    <contour>
      <point x="190" y="101" type="line"/>
      <point x="561" y="413" type="line"/>
      <point x="486" y="468" type="line"/>
      <point x="126" y="170" type="line"/>
    </contour>
  </outline>
</glyph>
